<svg xmlns="http://www.w3.org/2000/svg" viewBox="0 0 400 400"><g fill="#FFF"><path d="M161.1 292.6l-2.5-2.2 7.5-7.5c7.6-7.6 17.1-15 25.4-19.8 5.6-3.2 5.4-3 4.2-3.7-1.7-1-11.2-3.9-15.2-4.5l-3.7-.6-3.4 2.9c-7.1 6.1-13.6 7.8-28.8 7.9-14.2 0-25-1.9-39.7-7-6.2-2.2-6.3-2.2-4.2-3 2.8-1.1 16.7-4.1 25.2-5.4 9.3-1.4 34.2-2 43.5-1 10.1 1.1 19.1 3 27.6 5.7l7.3 2.3 6.8-2.3c7.9-2.6 17.7-4.7 27.9-5.8 9.3-1 34.1-.4 43.6 1 8.6 1.3 22.3 4.2 25.1 5.3 2.1.8 2.1.8-4.2 3-14.6 5.1-25.4 7-39.7 7-15.2 0-21-1.6-28.9-7.8l-3.8-3-3.5.7c-4.3.8-13.6 3.7-15 4.6-.7.5-.8.8-.3 1 1.9.8 15 9.5 19.2 12.8 5.9 4.6 17.3 16 17.3 17.3 0 1.3-4.5 4.5-6.1 4.2-.7-.1-3.7-2.9-6.7-6.1-8-8.6-20.1-18.6-29.2-23.8l-2.6-1.5-3.7 2.2c-9.4 5.5-23.1 17-30.1 25.3-4.2 4.7-5.6 5-9.3 1.8zm-60.9-46c-6.5-.7-10.1-1.8-16.1-4.7-9.6-4.8-15.9-10.7-24.5-23-4.5-6.4-4.6-6.7-3-6.9 2.7-.3 13.5 3.5 23.5 8.3 16.8 8.1 29.7 16.1 35.5 22.2l3 3.2-2.4.4c-4.4.8-11.4 1-16 .5zm199 .3c-1.2-.1-3.7-.4-5.8-.6l-3.7-.4 1.2-2c1.6-2.6 8.2-7.7 17-13 8.3-5.1 29.8-15.5 35.4-17.2 5-1.5 9.1-2.1 9.1-1.3 0 1.1-8.1 12.4-12 16.7-7.5 8.4-18.8 15.2-27.8 16.8-4.6.8-10.6 1.3-13.4 1zm-163.8-3.7c-10.3-1.4-19.3-8.2-24.4-18.3-4-8-8.1-23.7-6.1-23.7.4 0 2.8 1.6 5.5 3.5 15.4 11.1 34.3 28.6 37.5 34.7l1.9 3.7-1.6.4c-2.2.5-7.8.4-12.8-.3zm124.6.3c-1.9-.3-1.6-1.6 1.1-5.9 4.9-7.6 40.5-38.1 42.4-36.3.7.7-1.2 9.8-3.3 16.2-3.7 11.1-9.8 18.7-18.4 22.8-6.2 3-15.6 4.3-21.8 3.2zm-74.8-11.9c-48.7-7.6-87.2-42.1-98.2-88-2.4-9.8-3.1-18.1-2.6-30 .7-18.1 3.9-30.3 12.3-46.6 2.7-5.1 7-12.2 9.6-15.7 5.8-7.8 18.1-19.8 26-25.4 28.5-20.1 63.6-27.1 98.3-19.7 10.5 2.3 15.9 4.1 26.9 9.3 32.9 15.7 55.9 44.3 63.9 79.9 1.4 6.2 1.6 8.9 1.6 22.7 0 17.3-.8 22.9-5.2 35.8-2.9 8.4-10.9 23.6-16.5 31.1-6.1 8.2-18.9 20.5-27.4 26.2-13.3 9-29.7 16-45.7 19.3-9.1 2-33.6 2.6-43 1.1zm-24-24.6c2.7-.9 8.2-2.9 12.2-4.4 10-3.7 18.4-6 25.1-6.8 6.8-.8 8.8-1.7 10.9-4.6 1.9-2.7 2-5.5.5-9.8-.6-1.7-1.5-6.6-2-10.9-.5-4.3-1.4-8.9-2.1-10.2-1.3-2.6-5.3-6.4-12.1-11.4-5.9-4.3-7.3-6.5-6.9-11 .2-2.8.7-4 2.3-5.5 1.5-1.5 2.1-2.9 2.4-5.5.3-3.1.6-3.5 2.1-3.7 2.8-.4 3.5-1.4 3.5-5.2 0-3.3.1-3.6 1.7-3.6 2.7 0 3.7-1.7 2.6-4.2-2.5-5.8-1.6-7.8 3.3-7.8 4.4 0 11.9-1.6 15.2-3.2 1.5-.7 6-4.4 10-8.2 10.6-10.1 17.9-13.2 30.3-13.3 7.3 0 12.5 1.1 18.6 4.1 16.1 7.8 27.3 20.4 31.2 35.2 1.9 7 1.8 18.8 0 26-2.5 9.3-5.6 14.5-13.2 21.7-10.6 10.1-19.2 14.1-31 14.4-7.8.2-8.3.7-7.9 7 .5 6.8 4.8 13.3 12.2 18.2 3.7 2.4 3.5 2.5 12.6-5.8 25.7-23.4 38.9-56.3 35.8-89-1.5-15.7-6.6-31.7-14.6-45.2-1.7-2.9-3.3-5.3-3.6-5.5-.3-.2-2.1.6-4 1.7s-6.2 3.6-9.7 5.4c-3.5 1.8-6.4 3.4-6.5 3.5-.1.1.6 1.8 1.5 3.9l1.7 3.7-2.9-1.2c-1.6-.7-3.4-2-4-2.9-.8-1.3-1.3-1.5-2.2-1-.8.4-2.8.3-5.9-.3-3.9-.8-4.4-1-2.9-1.4 1-.2 3.3-1 5.1-1.8l3.3-1.3-2.3-3.8c-2.9-4.9-10.2-15.2-11.5-16.3-.8-.7-2.2-.3-7.1 1.9-3.3 1.5-8 3.4-10.3 4.2-2.3.8-4.3 1.5-4.4 1.7-.1.1 1.2 4.5 3 9.6s3.1 9.6 3 9.7c-.2.2-1.2.5-2.3.7l-2 .4-3.2-9.2c-3.7-10.7-2.2-9.9-14.2-8-3.8.6-9.1 1.3-11.7 1.5l-4.7.4v22l5.4-.4c3-.2 8.3-.7 11.8-1 3.5-.3 7.1-.6 8-.6h1.5l-1.7 1.7c-2.8 2.8-4 3.2-14.6 3.9l-10.1.7-.2 3.8-.2 3.8h-4.8v-34l-3.7-.4c-2-.2-4.6-.4-5.9-.4-1.8 0-2.5-.5-3.6-2.3l-1.4-2.3 7.3.4 7.3.4v-9.5c0-7-.2-9.5-.9-9.7-.5-.1-3.1-.6-5.8-1-2.7-.4-5.7-.9-6.7-1.2-1.7-.4-2.1 0-5.4 5.9-1.9 3.4-3.6 6.5-3.8 6.9-.2.6-3.9-1.6-4-2.4 0-.2 1.5-3.1 3.4-6.4 2.5-4.3 3.2-6.1 2.6-6.5-.5-.3-3-1.7-5.6-3.2l-4.7-2.7-6.6 5.1c-6.5 5.1-6.6 5.1-9.5 4.5l-2.9-.6 7.4-6c4.1-3.3 7.4-6.2 7.3-6.4-.1-.2-1.4-1.7-2.8-3.2l-2.7-2.8-3.6 1.5c-13.5 5.5-29.6 16.8-39.7 27.9-15.5 17-26 39.8-28 60.4-.2 2.4-.6 5.5-.8 6.9-.2 1.4 0 2.5.4 2.5s3-1.7 5.7-3.7c2.8-2 7.2-4.9 9.9-6.4 10.5-5.8 11.4-7.8 8.8-19.9-1.5-7.1-1.8-14.9-.6-20.2 2.4-10.8 10.8-19.6 22.3-23.3 3.7-1.2 5.6-1.4 11.8-1.2 6.1.2 8.2.6 12.6 2.3 10.8 4.1 21.2 12.3 25.7 20.3 2.3 4 2.4 4.8 2.4 10.4 0 6.7-1.3 10.2-6.3 17.1-2.6 3.6-2.6 3.7-2.2 8.4l.4 4.8-2.1 1.1c-1.6.8-2.1 1.5-2.1 3 0 1.1-.4 2.2-1 2.5-.5.3-1.1 1.3-1.2 2.2-.2 1.1-.7 1.7-1.8 1.9-.9.1-2.4 1.2-3.4 2.5-3.2 4-6.9 4.5-16.8 2.2-6.1-1.4-6.6-1.4-8.9-.4-3.3 1.5-3.6 3.2-1.9 11.3 1.8 8.5 4.3 25.7 4.3 29.2 0 6.6 3.2 8.5 16.7 9.8l9.8.9 4-2.7c3.5-2.3 4.4-2.7 7.1-2.5 2.8.2 3.1.4 2.9 1.7-.2 1.5-.1 1.5 3.5 1.1 3-.3 3.9-.2 4.7.7 1.4 1.6.6 7.7-1.6 12-3.2 6.2-8 8.1-16 6.1-4.2-1-5.1-1-10-.1-11.4 2.1-16.1 2.7-22.6 2.7-5.8 0-7.2-.2-10.3-1.7l-3.6-1.7-1.1 1.6c-1.7 2.5-2.9 6.4-3 9.4 0 2.7.1 2.9 5.9 7.4 3.3 2.5 6.6 4.8 7.5 5 .8.3 5.1.4 9.6.3 6.9-.5 9.3-.9 13.3-2.3zM293.5 56.5l4-2.5-3.1-3.8c-1.7-2.1-6.1-6.7-9.8-10.2-5-4.8-6.9-6.2-7.6-5.7-5.5 3.9-11.4 7.9-12.2 8.3-.7.4.1 2 3.6 6.8 2.5 3.5 5.7 8.3 7.1 10.8l2.6 4.5 5.7-2.9c3.1-1.5 7.5-4 9.7-5.3zM223.7 53c3.2-.6 6.2-1.3 6.7-1.5.7-.4-.2-2.5-3.3-8.4-5.2-9.7-5.3-9.9-7.6-9.3-1 .3-4.3.8-7.4 1.2l-5.6.8-.2 9.6-.2 9.6 5.9-.4c3.2-.4 8.5-1 11.7-1.6zm17.8-4.7c7.5-2.7 14.1-5.8 14.1-6.6 0-.9-9.7-9.8-14.8-13.7l-3.9-2.9-1.9 1.3c-1.1.7-3.4 2-5.1 2.8-1.7.8-3.3 1.6-3.4 1.7-.4.3 9.2 18.9 9.8 18.9.3.2 2.6-.6 5.2-1.5zm25.6-12.8c3-2.1 5.7-4.2 5.8-4.7.4-1.1-12.2-8.9-19.8-12.3l-6.1-2.7-3 3.2-3.1 3.2 2.3 1.7c5 3.7 13 10.8 14.8 13.1 1 1.3 2.3 2.4 2.7 2.4.5-.1 3.4-1.8 6.4-3.9zm-65.8-12.9c0-4.8-.3-8.7-.6-8.7s-1.3 1-2.2 2.2c-5.1 6.7-9 12.1-9 12.6s1.7.9 8.7 2.2c3.2.6 3.1.8 3.1-8.3zm13.4 7.2c1.8-.4 3.3-1 3.3-1.4 0-.9-6.4-9.8-9.4-13l-2.4-2.6v18.4l2.6-.4c1.4-.1 4.1-.6 5.9-1zm-27.2-7c1.7-2.5 4.2-5.8 5.4-7.4 1.2-1.6 1.9-2.8 1.4-2.8-2.4 0-19.1 9.1-18.5 10.1.4.7 7.3 4.6 8 4.6.4 0 2-2.1 3.7-4.5zm40.4 2.4c2.3-1.2 4.1-2.4 4.1-2.7 0-1.3-17.7-10.6-18.6-9.7-.2.2 1.7 3.2 4.3 6.6 2.6 3.4 4.8 6.6 5 7.1.5 1.1.5 1.1 5.2-1.3zm-53.6-7.9c1.6-1.1 5.4-3.2 8.5-4.7 6.8-3.4 7.8-4.2 4.5-3.7-5.6.9-13.2 2.6-17.3 3.8l-4.4 1.3 2.7 2.6c1.5 1.4 2.8 2.6 2.9 2.6.1 0 1.5-.8 3.1-1.9zm66-1.2c1.2-1.5 1.3-1.9.5-2.3-2.6-1.4-22.7-5.7-22.7-4.8 0 .1 3 1.7 6.7 3.6 3.7 1.9 7.8 4.2 9.2 5 2.7 1.8 3.8 1.5 6.3-1.5zM97.6 221.5c-5.7-3.7-11-9.4-14-15-4-7.5-4.7-10.5-4.7-21.1 0-7.6.3-10.5 1.6-15.6.9-3.4 1.9-6.2 2.1-6.2.3 0 1.5 1.5 2.7 3.3 6.9 10.1 16.2 39.6 16.3 51.3 0 2.7-.1 5.1-.3 5.2 0 .3-1.7-.6-3.7-1.9zm208.7-.2c-1.6-9.7 9.6-45.9 17.2-55.5l1.8-2.3.8 1.9c3.1 7.8 4.3 22.3 2.5 30.4-1.8 8.2-5.3 14.2-11.9 20.4-3.1 2.9-6.6 5.9-7.8 6.5l-2.2 1.2-.4-2.6zm-232.2-8.4c-7.3-3.1-12.2-6.3-18.4-12-8.3-7.7-14.2-15.9-18.7-26.1-2.4-5.3-4.8-13.6-4.1-14.3.7-.7 9.4 5.7 15.3 11.1 13.9 12.8 27.9 30.6 32 40.7 1.5 3.6 1.2 3.6-6.1.6zm254-1.1c3.5-8.9 16-24.8 29.6-37.8 8.4-8 16.7-14.3 17.6-13.5.7.7-3.3 12.6-6.1 18-6 11.6-15 22.1-24.1 28.4-4.3 3-12.9 7-16.4 7.9l-1.9.4 1.3-3.4zm-261-28.4c-1.5-2.2-3.4-6.1-4.4-8.7-1.5-4.1-1.8-5.8-1.7-13.1 0-7.6.2-8.9 2.3-14.7 2.1-5.9 7.2-15.5 9.8-18.3 1.1-1.2 1.2-1.1 2.1 1.7 3.2 10.1.7 45.9-3.9 54.4l-1.4 2.6-2.8-3.9zm269.6.6c-3.4-7.6-5.4-24-4.9-39.9.2-6.1.7-12.3 1.3-14l.9-3.2 2 2.8c9.2 13 13.3 28.3 10.7 39.9-1.1 5.1-4.7 13.2-7.2 16l-1.4 1.6-1.4-3.2zm-287-17.9c-5.9-4.2-11.1-10.4-14.7-17.4-4.5-8.9-6-15.2-6.4-28.6-.2-6.3-.1-11.2.2-11.2 2.4 0 15 22.3 20.1 35.7 4.5 11.7 7.3 24.5 5.4 24.5-.2 0-2.3-1.4-4.6-3zm303.5.4c0-3.5 2.7-13.6 5.9-21.8 5.4-14.2 18.2-36.5 20.2-35.3 1 .6 0 20-1.2 25.4-2.2 9.8-6.8 18.7-12.7 25.1-2.4 2.6-10.7 9.1-11.5 9.1-.4.1-.7-1.1-.7-2.5zM54.7 147.3c-.2-.3-.9-2.5-1.5-4.7-1.4-5.2-1.4-14.2 0-19.3 2.3-8.7 8.8-18.9 16.4-26.1l4.3-4-.4 6c-.8 11.1-5.5 26.1-12.3 39.1-3.6 6.8-5.8 9.9-6.5 9zm295.4-3.2c-7.8-11.6-15.8-35.4-15.7-46.7v-4.2l5.4 5.4c6.2 6.3 11.3 14 13.9 21 3 8.2 3 19.5-.1 26.3l-.9 2-2.6-3.8zm10.1-24.1c-.6-3.6-.8-8.9-.5-18.3.5-16.9 2.5-29.3 6-37.1l1.3-2.9 2.1 6.4c4.7 14.1 5.4 29.7 1.8 40.5-1.4 4.3-5.3 11.4-7.8 14.3l-2 2.3-.9-5.2zm-316.4 1.4c-7.1-9.2-10.1-22.1-8.5-36.7.8-7.2 3.5-18 5.2-21.2 1-1.8 1-1.7 2.8 3.6 3.5 10.5 5.3 24.4 5.3 39.5 0 8.7-1.1 17.6-2.2 17.6-.2.1-1.4-1.2-2.6-2.8zm10.8-20.3c-1-5 1-13.7 4.7-20.6 3.5-6.6 10.3-13.3 18.8-18.7 3.4-2.1 6.3-3.8 6.5-3.6.7.7-4.2 12-8.2 19-6.5 11.1-14 21-19 24.6l-2.3 1.7-.5-2.4zm293.9-1.5c-8-7.8-19.1-25.7-22.7-36.8-.9-2.8-1.6-5.2-1.4-5.3.4-.4 10.6 6.5 14.5 10 5 4.4 9.7 10.7 11.9 15.9 2.1 4.9 3.5 14.9 2.7 18.1l-.6 2.3-4.4-4.2zM51.1 75.9c-.8-5.3 0-12.4 1.9-17 3-7.1 6.2-11.4 14-19.1l7.5-7.4-.4 3.3c-.7 5.4-3.7 15.6-6.2 21.3-3.4 7.6-6.4 12.1-11.6 17.4l-4.6 4.8-.6-3.3zm303.1 1c-8.1-6.6-15.7-20.9-19.1-35.6-2.3-9.8-2.2-9.8 4.6-3.3 6.7 6.4 13.3 15.3 15.7 21.2 1.7 4.3 2.6 13.8 1.6 17.4l-.6 2.1-2.2-1.8z"/><g stroke="#FFF" stroke-width="3" stroke-miterlimit="10"><path d="M121.2 364.8c2.6 1.7 7.2 3.5 11.6 3.5 6.4 0 9.4-3.2 9.4-7.2 0-4.2-2.5-6.5-9-8.9-8.7-3.1-12.8-7.9-12.8-13.7 0-7.8 6.3-14.2 16.7-14.2 4.9 0 9.2 1.4 11.9 3l-2.2 6.4c-1.9-1.2-5.4-2.8-9.9-2.8-5.2 0-8.1 3-8.1 6.6 0 4 2.9 5.8 9.2 8.2 8.4 3.2 12.7 7.4 12.7 14.6 0 8.5-6.6 14.5-18.1 14.5-5.3 0-10.2-1.3-13.6-3.3l2.2-6.7zM172.6 311.5v13.9h12.6v6.7h-12.6v26.1c0 6 1.7 9.4 6.6 9.4 2.3 0 4-.3 5.1-.6l.4 6.6c-1.7.7-4.4 1.2-7.8 1.2-4.1 0-7.4-1.3-9.5-3.7-2.5-2.6-3.4-6.9-3.4-12.6v-26.4h-7.5v-6.7h7.5v-11.6l8.6-2.3zM221.9 373.8l-.7-6.1h-.3c-2.7 3.8-7.9 7.2-14.8 7.2-9.8 0-14.8-6.9-14.8-13.9 0-11.7 10.4-18.1 29.1-18v-1c0-4-1.1-11.2-11-11.2-4.5 0-9.2 1.4-12.6 3.6l-2-5.8c4-2.6 9.8-4.3 15.9-4.3 14.8 0 18.4 10.1 18.4 19.8v18.1c0 4.2.2 8.3.8 11.6h-8zm-1.3-24.7c-9.6-.2-20.5 1.5-20.5 10.9 0 5.7 3.8 8.4 8.3 8.4 6.3 0 10.3-4 11.7-8.1.3-.9.5-1.9.5-2.8v-8.4zM244.2 373.8v-41.7h-6.8v-6.7h6.8v-2.3c0-6.8 1.5-13 5.6-16.9 3.3-3.2 7.7-4.5 11.8-4.5 3.1 0 5.8.7 7.5 1.4l-1.2 6.8c-1.3-.6-3.1-1.1-5.6-1.1-7.5 0-9.4 6.6-9.4 14v2.6h11.7v6.7h-11.7v41.7h-8.7zM273.3 373.8v-41.7h-6.8v-6.7h6.8v-2.3c0-6.8 1.5-13 5.6-16.9 3.3-3.2 7.7-4.5 11.8-4.5 3.1 0 5.8.7 7.5 1.4l-1.2 6.8c-1.3-.6-3.1-1.1-5.6-1.1-7.5 0-9.4 6.6-9.4 14v2.6h11.7v6.7H282v41.7h-8.7z"/></g></g></svg>