<svg xmlns="http://www.w3.org/2000/svg" viewBox="800 -50.1 3699.1 500.1"><g inkscape:output_extension="org.inkscape.output.svg.inkscape" sodipodi:docname="UNICEF.svg" inkscape:version=".46" sodipodi:version=".32" xmlns:rdf="http://www.w3.org/1999/02/22-rdf-syntax-ns#" xmlns:dc="http://purl.org/dc/elements/1.1/" xmlns:sodipodi="http://sodipodi.sourceforge.net/DTD/sodipodi-0.dtd" xmlns:svg="http://www.w3.org/2000/svg" xmlns:inkscape="http://www.inkscape.org/namespaces/inkscape" xmlns:cc="http://creativecommons.org/ns#"><sodipodi:namedview height="744.09" inkscape:window-y="-4" inkscape:window-x="-4" inkscape:window-height="744" inkscape:window-width="1280" inkscape:current-layer="layer1" inkscape:document-units="px" inkscape:pageshadow="2" inkscape:pageopacity="0" inkscape:cx="1595.227" showgrid="false" inkscape:cy="-295.16" bordercolor="#666666" pagecolor="#ffffff" borderopacity="1" objecttolerance="10" inkscape:zoom=".247" gridtolerance="10000" guidetolerance="10"/><path fill="#FFF" d="M2445.8 438.8l-3.9-3.7 11.7-12.7c11.8-12.9 26.6-25.4 39.4-33.4 8.8-5.5 8.4-5.1 6.5-6.3-2.6-1.7-17.4-6.6-23.6-7.7l-5.8-1-5.3 4.9c-11.1 10.3-21.1 13.3-44.8 13.3-22.1 0-38.8-3.2-61.7-11.8-9.7-3.7-9.7-3.7-6.5-5 4.3-1.8 26-6.9 39.1-9.1 14.4-2.4 53.2-3.3 67.6-1.6 15.7 1.9 29.6 5 42.8 9.6l11.3 3.9 10.6-3.8c12.3-4.5 27.4-7.9 43.4-9.8 14.4-1.7 53-.7 67.7 1.7 13.3 2.2 34.6 7.1 38.9 9 3.2 1.4 3.2 1.4-6.5 5-22.7 8.6-39.4 11.8-61.7 11.8-23.6 0-32.7-2.6-44.9-13.2l-6-5.1-5.4 1.1c-6.7 1.4-21.1 6.3-23.2 7.9-1 .8-1.2 1.4-.4 1.7 3 1.3 23.4 16 29.9 21.5 9.1 7.8 26.8 27 26.8 29.2 0 2.3-7.1 7.6-9.5 7.2-1.1-.2-5.8-4.8-10.5-10.3-12.4-14.6-31.3-31.4-45.3-40.2l-4.1-2.6-5.7 3.6c-14.6 9.4-35.8 28.7-46.8 42.7-6.3 8.1-8.5 8.6-14.1 3.2zM886 394.5c-29.5-6.9-52.2-27.7-62.7-57.8-7.3-20.8-6.9-14.9-7.4-132.9l-.4-107.1h53l.3 101.4.3 101.4 2.9 11c8.4 32 25.8 46 57.1 46 20.2 0 36.9-6.8 50-20.5 8.6-8.9 13.8-19.4 17.7-35.4 5.7-23.3 6-29.2 6-119.9V96.8h53v291.6H1005v-21.5c0-11.8-.4-21.5-.9-21.5s-2.8 2.9-5.1 6.4c-12.9 19.5-33.5 34.1-57.8 40.7-8.6 2.4-13.3 2.9-29.2 3.2-13.8.3-20.9 0-26-1.2zm712.6-.2c-43.2-6.7-70.5-26.7-87.8-64.3-9.5-20.6-14-41.1-15.4-69.3-3.8-76.9 20.3-132.7 68-157.7 18.4-9.7 34.8-13.4 59-13.5 27.6-.1 46.2 5.6 66.3 20 21.7 15.6 36.7 43.5 38.8 72.3l.7 8.8H1676v-3.4c0-12.7-7.8-32.9-16.3-42.3-15.8-17.5-45.9-21.4-69.8-9.1-8.6 4.4-19.5 15.5-24.5 24.7-11.3 21.1-17 54.8-15.6 92.3 1.5 41.2 9.9 68.4 26.1 85.3 11.9 12.4 25.1 17.8 43.3 17.8 29.6 0 49.7-17 56.8-48 1.2-5.1 2.1-11 2.1-13v-3.7h52.6l-.9 7.6c-4.7 40.4-28.6 73.2-63.8 87.7-14.8 6.1-23.8 7.7-44.8 8.1-10.6.1-20.8 0-22.6-.3zm252.1-1.5c-51.6-9.7-83.1-46.3-93.1-108.5-2.4-15-3.3-47.5-1.7-63.4 4.1-41.3 17.3-73.6 39.5-96.6 10.2-10.6 19-17.1 31.7-23.3 37.4-18.3 91.7-15 126.8 7.7 11.1 7.2 24.4 21.2 31.3 33.1 14.3 24.3 19.7 48.6 19.7 88.5v22.3l-97.7.3-97.7.3-.3 8.5c-.2 4.7.2 13.3.9 19.2 6.1 51.6 35.5 79.1 79.8 74.6 30.3-3.1 46.7-16.7 54.3-45.3 1.2-4.6 2.2-9.5 2.2-10.9v-2.6h55.2v2.6c0 1.4-1 6.8-2.3 12-9.4 38.8-34.9 66-72.7 77.4-21.3 6.5-53.8 8.3-75.9 4.1zm99.3-188.7c-.6-22.7-8-43-20.3-55.8-23.3-24.3-65.3-26.6-91.4-4.9-15.7 13-26.4 36.4-27.8 61l-.6 11 70.2-.3 70.2-.3-.3-10.7zm-840 38.4V96.8h50.8v21.5c0 11.8.4 21.5.9 21.5s2.7-3 4.9-6.6c11.1-18.8 29.7-32.8 53.4-40.5 8.8-2.8 11-3.1 28.4-3.1 14.5 0 21.1.5 28.1 2 42.2 9.6 67.6 34.9 74.1 73.8 1.4 8.1 1.6 26.9 1.6 116.3v106.6h-52v-95.8c0-103.7-.3-109.5-5.9-125-8.7-24.2-28.5-36.9-57.4-36.9-22 0-37.3 6.6-53.1 23.1-8.4 8.8-10.3 11.4-13.2 18.7-8 20.3-8.9 33.5-8.9 134.7v81.1h-52V242.5zm292.2-.5V96.8h53v290.4h-53V242zm663.1 19.4l-.3-125.7-23.5-.3-23.5-.3V97.9l23.5-.3 23.5-.3.6-39.5c.7-43.8 1-46 8.2-61.5 4.6-9.9 16.1-22.7 25.3-28.1 3.3-1.9 10.3-5 15.7-6.9 21-7.3 43.3-7.5 71.7-.7 2.4.6 2.4.7 2.4 23.2V6.5l-5.1-.8c-2.8-.5-12.2-.9-20.8-.9-19.6 0-28.8 2.4-36.3 9.7-8.6 8.2-9.2 11.5-9.2 50.2V98h63.8v37.2h-63.8v252h-52l-.2-125.8zm285.9 99.7c-10.2-1.2-15.7-3-24.9-7.9-15-8.1-24.8-18.1-38.1-38.8-7-10.9-7.2-11.3-4.7-11.7 4.2-.6 21 5.9 36.5 14 26.1 13.7 46.1 27.2 55.1 37.4l4.7 5.3-3.8.8c-6.8 1.3-17.7 1.7-24.8.9zm309 .4c-1.8-.2-5.8-.7-8.9-1l-5.7-.6 1.9-3.3c2.5-4.5 12.8-13 26.4-22 12.9-8.5 46.3-26.2 55-29.1 7.7-2.6 14.2-3.6 14.2-2.3 0 1.8-12.5 20.9-18.6 28.3-11.6 14.1-29.2 25.7-43.1 28.4-7.6 1.4-17 2.1-21.2 1.6zm-254.3-6.1c-16-2.4-29.9-13.8-37.9-31-6.3-13.5-12.5-40.1-9.5-40.1.6 0 4.4 2.6 8.5 5.9 23.9 18.8 53.3 48.4 58.1 58.5l2.9 6.2-2.5.7c-3.2 1.1-11.8 1-19.6-.2zm193.3.4c-2.9-.6-2.6-2.8 1.7-9.9 7.6-12.8 63-64.3 65.9-61.3 1.1 1.1-1.8 16.6-5.1 27.4-5.7 18.8-15.2 31.6-28.6 38.5-9.7 5-24.2 7.3-33.9 5.3zm-116-20c-75.5-12.8-135.3-71.1-152.4-148.6-3.7-16.6-4.8-30.6-4.1-50.7 1.1-30.5 6.1-51.1 19.2-78.6 4.1-8.7 10.8-20.6 14.8-26.5 9-13.2 28.1-33.5 40.3-42.9 44.3-33.9 98.8-45.8 152.5-33.3 16.3 3.8 24.8 7 41.7 15.8 51.1 26.5 86.7 74.9 99.2 134.9 2.2 10.5 2.5 15 2.5 38.4 0 29.2-1.3 38.7-8.1 60.4-4.5 14.2-16.9 39.8-25.6 52.5-9.4 13.8-29.4 34.6-42.5 44.3-20.7 15.3-46.2 27-70.9 32.6-14 3.2-52.1 4.1-66.6 1.7zm-37.3-41.6c4.2-1.6 12.7-4.9 19-7.5 15.5-6.2 28.6-10.1 39-11.4 10.6-1.4 13.7-2.8 16.9-7.8 2.9-4.5 3.1-9.3.8-16.6-.9-2.9-2.3-11.2-3.1-18.5-.8-7.3-2.2-15.1-3.2-17.3-2-4.5-8.2-10.8-18.8-19.2-9.1-7.2-11.3-11-10.7-18.6.3-4.7 1.1-6.7 3.6-9.4 2.4-2.6 3.3-4.8 3.7-9.3.5-5.2.9-5.9 3.3-6.3 4.4-.6 5.4-2.3 5.4-8.8 0-5.6.2-6.1 2.6-6.1 4.1 0 5.7-2.8 4-7.2-3.8-9.8-2.5-13.2 5.2-13.2 6.8 0 18.5-2.7 23.6-5.5 2.3-1.2 9.3-7.5 15.5-13.9 16.5-17 27.8-22.4 47.1-22.4 11.3 0 19.4 1.9 28.9 6.9 25 13.1 42.4 34.4 48.5 59.5 2.9 11.8 2.9 31.7-.1 43.9-3.8 15.7-8.7 24.5-20.4 36.6-16.5 17-29.9 23.7-48.2 24.3-12 .3-12.9 1.2-12.3 11.9.7 11.6 7.5 22.5 19 30.7 5.7 4.1 5.4 4.2 19.5-9.8 39.8-39.6 60.4-95.1 55.6-150.3-2.3-26.6-10.3-53.5-22.6-76.4-2.6-4.8-5.1-9-5.6-9.3-.5-.3-3.3 1-6.2 2.9s-9.7 6-15 9.1c-5.4 3.1-9.9 5.7-10 5.9-.2.1.9 3.1 2.4 6.6l2.7 6.3-4.6-2.1c-2.5-1.2-5.3-3.4-6.2-4.9-1.3-2.2-2.1-2.6-3.5-1.7-1.2.7-4.4.5-9.2-.5-6.1-1.3-6.8-1.7-4.5-2.3 1.6-.4 5.1-1.8 7.9-3l5.1-2.3-3.5-6.5c-4.5-8.3-15.8-25.7-17.9-27.5-1.3-1.1-3.4-.5-11 3.3-5.2 2.6-12.4 5.7-15.9 7.1-3.6 1.4-6.7 2.6-6.9 2.8-.2.2 1.9 7.5 4.7 16.3s4.9 16.2 4.6 16.4c-.3.3-1.9.8-3.6 1.1l-3.2.7-5-15.6c-5.7-18.1-3.5-16.7-22.1-13.6-6 1-14.1 2.1-18.1 2.5l-7.3.7v37.2l8.4-.7c4.6-.4 12.9-1.2 18.4-1.7s11-1.1 12.4-1.1h2.4l-2.6 2.9c-4.3 4.8-6.3 5.4-22.6 6.6l-15.7 1.2-.3 6.5-.3 6.5h-7.4V45.1l-5.7-.7c-3.1-.4-7.2-.7-9.1-.7-2.7 0-3.8-.8-5.6-4l-2.2-3.9 11.3.7 11.3.7v-16c0-11.9-.4-16.1-1.4-16.4-.7-.2-4.8-1-8.9-1.7-4.2-.7-8.9-1.6-10.4-1.9-2.7-.6-3.2 0-8.4 9.9-3 5.8-5.7 11-5.9 11.6-.4 1.1-6.1-2.7-6.1-4 0-.4 2.4-5.2 5.3-10.7 3.8-7.2 5-10.3 4.1-10.9-.7-.5-4.6-2.9-8.7-5.4l-7.4-4.6-10.2 8.6c-10.1 8.6-10.2 8.6-14.7 7.7l-4.6-.9 11.6-10.1c6.4-5.6 11.4-10.5 11.3-10.9-.1-.4-2.1-2.9-4.4-5.5l-4.1-4.8-5.6 2.5c-20.9 9.2-45.9 28.4-61.6 47.1-24 28.8-40.4 67.2-43.5 102-.4 4-.9 9.3-1.2 11.6-.3 2.4-.1 4.2.6 4.2.6 0 4.6-2.8 8.9-6.3 4.3-3.5 11.2-8.4 15.4-10.9 16.4-9.9 17.7-13.1 13.6-33.7-2.4-12-2.8-25.2-1-34.1 3.7-18.2 16.8-33.1 34.6-39.4 5.8-2.1 8.7-2.4 18.3-2 9.5.4 12.8 1 19.6 3.9 16.8 7 32.9 20.8 39.9 34.3 3.5 6.8 3.8 8 3.8 17.5 0 11.3-2 17.2-9.7 28.9-4 6.1-4 6.2-3.3 14.3l.7 8.1-3.3 1.8c-2.5 1.4-3.3 2.5-3.3 5.1 0 1.8-.7 3.7-1.5 4.2s-1.7 2.2-1.9 3.7c-.3 1.9-1.2 2.9-2.8 3.2-1.3.2-3.7 2.1-5.2 4.2-5 6.8-10.7 7.6-26.2 3.8-9.5-2.4-10.2-2.4-13.8-.6-5.1 2.6-5.6 5.4-2.9 19.2 2.8 14.4 6.7 43.4 6.7 49.4 0 11.2 4.9 14.3 26 16.5l15.1 1.6 6.2-4.5c5.4-3.9 6.9-4.5 11.1-4.2 4.4.3 4.9.6 4.5 2.9-.3 2.5-.1 2.5 5.4 1.9 4.6-.6 6.1-.3 7.2 1.1 2.2 2.8 1 12.9-2.5 20.3-4.9 10.5-12.5 13.6-24.8 10.4-6.5-1.7-7.9-1.7-15.6-.2-17.7 3.6-25 4.5-35.1 4.5-9 0-11.2-.4-16-2.9l-5.6-2.9-1.7 2.7c-2.7 4.3-4.6 10.8-4.6 15.9 0 4.6.2 4.9 9.2 12.4 5.1 4.2 10.3 8.1 11.6 8.5 1.3.4 8 .7 14.8.5 9.9-.5 13.6-1.1 19.8-3.5zm205.4-254.3l6.3-4.2-4.9-6.5c-2.7-3.6-9.5-11.3-15.2-17.2-7.8-8.1-10.7-10.4-11.8-9.6-8.6 6.5-17.7 13.3-18.9 14-1.1.7.2 3.4 5.5 11.5 3.8 5.8 8.8 14.1 11 18.3l4.1 7.7 8.8-4.9c4.8-2.7 11.6-6.8 15.1-9.1zM2542.9 34c5-1 9.7-2.2 10.5-2.6 1.1-.6-.2-4.2-5.2-14.3-8.1-16.4-8.3-16.7-11.8-15.7-1.5.4-6.7 1.4-11.4 2.1l-8.7 1.3-.3 16.2-.3 16.2 9.1-.7c4.9-.4 13.1-1.5 18.1-2.5zm27.7-7.9c11.7-4.6 21.9-9.8 21.9-11.1 0-1.6-15-16.6-23-23.1l-6.1-4.9-3 2.2c-1.7 1.2-5.2 3.4-7.9 4.8s-5.1 2.7-5.3 3c-.6.6 14.3 31.9 15.3 32 .4-.1 4.1-1.3 8.1-2.9zm39.7-21.7c4.7-3.6 8.8-7.1 9-7.9.6-1.8-18.9-15.1-30.7-20.8l-9.4-4.6-4.8 5.4-4.8 5.4 3.6 2.9c7.7 6.3 20.2 18.3 23 22.1 1.6 2.2 3.5 4 4.2 4 .7 0 5.2-3 9.9-6.5zm-102.2-21.8c0-8.1-.4-14.7-.9-14.7s-2.1 1.7-3.5 3.7c-8 11.2-14 20.4-14 21.2 0 .8 2.6 1.5 13.5 3.8 5 1.1 4.9 1.4 4.9-14zM2529-5.1c2.8-.6 5.1-1.7 5.1-2.3 0-1.5-10-16.5-14.6-22l-3.7-4.4v31.2l4.1-.7c2.1-.3 6.2-1.2 9.1-1.8zm-42.2-12c2.7-4.2 6.5-9.8 8.4-12.4s2.9-4.8 2.2-4.8c-3.7 0-29.6 15.5-28.7 17.1.7 1.1 11.3 7.8 12.5 7.8.3-.1 2.8-3.5 5.6-7.7zm62.6 4.1c3.5-2 6.4-4 6.4-4.5 0-2.2-27.5-17.8-28.8-16.4-.3.3 2.7 5.3 6.7 11.1s7.5 11.2 7.8 12c.6 1.9.6 1.8 7.9-2.2zm-83.1-13.2c2.5-1.8 8.4-5.4 13.2-8 10.5-5.8 12-7.1 7-6.2-8.8 1.5-20.5 4.3-26.9 6.4l-6.9 2.2 4.1 4.4c2.3 2.4 4.3 4.4 4.5 4.4.3 0 2.5-1.5 5-3.2zm102.4-2.1c1.9-2.6 2-3.2.7-4-4.1-2.4-35.3-9.6-35.3-8.2 0 .2 4.7 2.9 10.5 6.1 5.7 3.2 12.2 7 14.2 8.5 4.2 3.1 6.1 2.7 9.9-2.4zm-221.6 347.1c-8.8-6.2-17.1-15.8-21.7-25.3-6.2-12.7-7.2-17.7-7.2-35.7 0-12.9.5-17.7 2.6-26.3 1.4-5.7 2.9-10.5 3.3-10.5s2.3 2.5 4.2 5.6c10.7 17.1 25.2 66.8 25.3 86.7 0 4.6-.2 8.6-.4 8.8s-3-1.2-6.1-3.3zm324-.5c-2.5-16.4 14.9-77.5 26.8-93.7l2.8-3.8 1.2 3.3c4.8 13.2 6.7 37.6 3.9 51.3-2.8 13.8-8.3 24-18.4 34.5-4.8 5-10.3 9.9-12.2 11l-3.3 2-.8-4.6zm-360.4-14.2c-11.4-5.2-19-10.6-28.5-20.2-12.9-13-22-26.8-29.1-44.1-3.7-9-7.4-23-6.4-24.1 1.1-1.1 14.6 9.6 23.8 18.8 21.5 21.6 43.3 51.7 49.7 68.7 2.2 6 1.8 6-9.5.9zm394.3-1.8c5.5-15 24.8-41.8 45.9-63.8 13-13.5 25.9-24.2 27.4-22.7 1.2 1.2-5.1 21.2-9.5 30.4-9.4 19.6-23.3 37.4-37.4 47.9-6.7 5-20 11.9-25.5 13.3l-3 .7 2.1-5.8zm-405.3-48c-2.3-3.7-5.4-10.3-6.9-14.6-2.4-6.9-2.7-9.7-2.7-22 0-12.9.3-15.1 3.5-24.9 3.3-10 11.2-26.2 15.2-30.9 1.7-2 1.8-1.9 3.2 2.8 5 17.1 1.1 77.5-6.1 92l-2.2 4.4-4-6.8zm418.7 1.1c-5.2-12.8-8.4-40.6-7.6-67.4.3-10.3 1.1-20.7 2-23.7l1.5-5.3 3.1 4.8c14.3 22 20.6 47.8 16.6 67.4-1.8 8.7-7.4 22.2-11.1 27l-2.1 2.7-2.4-5.5zM2272.8 225c-9.1-7.1-17.2-17.5-22.8-29.4-7.1-15.1-9.2-25.7-9.9-48.3-.3-10.6-.2-18.9.4-18.9 3.8.1 23.3 37.8 31.2 60.3 7 19.8 11.4 41.4 8.4 41.4-.5 0-3.8-2.3-7.3-5.1zm471.2.7c0-5.8 4.2-22.9 9.1-36.9 8.4-23.9 28.2-61.6 31.3-59.6 1.5 1 .1 33.7-1.9 43-3.5 16.5-10.5 31.6-19.8 42.5-3.8 4.4-16.6 15.5-17.9 15.5-.4-.1-.8-2.1-.8-4.5zm-463.4-32.4c-.3-.6-1.4-4.2-2.3-8-2.2-8.8-2.2-23.9-.1-32.6 3.6-14.7 13.6-32 25.5-44l6.7-6.8-.7 10.2c-1.2 18.8-8.5 44-19.1 66.1-5.5 11.5-9 16.7-10 15.1zm458.6-5.5c-12.1-19.7-24.5-59.8-24.3-78.8v-7.2l8.3 9.2c9.7 10.7 17.5 23.7 21.5 35.6 4.6 13.9 4.6 33-.1 44.5l-1.4 3.4-4-6.7zm15.7-40.6c-1-6.1-1.2-15.1-.8-30.9.8-28.6 3.9-49.5 9.3-62.6l2-4.9 3.3 10.7c7.3 23.8 8.3 50.2 2.8 68.4-2.2 7.3-8.2 19.3-12.1 24.2l-3 3.8-1.5-8.7zm-491.3 2.4c-11-15.6-15.7-37.4-13.1-61.9 1.3-12.2 5.4-30.4 8.1-35.8 1.5-3 1.5-2.9 4.3 6.1 5.4 17.8 8.3 41.2 8.3 66.8 0 14.7-1.7 29.7-3.3 29.7-.5-.1-2.4-2.3-4.3-4.9zm16.8-34.3c-1.5-8.4 1.6-23.2 7.3-34.8 5.5-11.1 15.9-22.4 29.2-31.6 5.2-3.6 9.8-6.3 10-6 1.1 1.2-6.4 20.3-12.7 32-10 18.8-21.8 35.4-29.6 41.6l-3.6 2.9-.6-4.1zm456.3-2.6c-12.5-13.2-29.6-43.4-35.3-62.2-1.4-4.7-2.4-8.8-2.2-9 .7-.7 16.5 11 22.6 16.8 7.8 7.4 15.1 18.1 18.5 26.9 3.3 8.4 5.5 25.2 4.1 30.6l-1 3.9-6.7-7zm-461.8-40c-1.3-8.9 0-20.9 3-28.7 4.7-12.1 9.6-19.3 21.7-32.3L2311.3-1l-.7 5.6c-1.1 9.1-5.7 26.4-9.7 36-5.3 12.8-9.9 20.4-18.1 29.4l-7.2 8-.7-5.3zm470.6 1.7c-12.5-11.2-24.4-35.3-29.7-60.1-3.5-16.5-3.4-16.6 7.2-5.6 10.4 10.7 20.6 25.8 24.3 35.7 2.7 7.3 4.1 23.3 2.5 29.4l-.9 3.6-3.4-3zM1397.8-1v-29.9h61.6V29h-61.6V-1z" inkscape:groupmode="layer" inkscape:label="Layer 1"/></g><path fill="none" d="M2908.8-27.8h1463.5V472H2908.8z"/><text transform="translate(2908.845 357.756)" fill="#FFF" font-family="'MyriadPro-Regular'" font-size="543">eTool</text></svg>