<?xml version="1.0" encoding="utf-8"?>
<!-- Generator: Adobe Illustrator 18.1.1, SVG Export Plug-In . SVG Version: 6.00 Build 0)  -->
<svg version="1.1" xmlns="http://www.w3.org/2000/svg" xmlns:xlink="http://www.w3.org/1999/xlink" x="0px" y="0px"
	 viewBox="800 -50.1 3572.3 492.4" enable-background="new 800 -50.1 3572.3 492.4" xml:space="preserve">
<g id="svg2" inkscape:output_extension="org.inkscape.output.svg.inkscape" sodipodi:docname="UNICEF.svg" inkscape:version="0.46" sodipodi:version="0.32" xmlns:rdf="http://www.w3.org/1999/02/22-rdf-syntax-ns#" xmlns:dc="http://purl.org/dc/elements/1.1/" xmlns:sodipodi="http://sodipodi.sourceforge.net/DTD/sodipodi-0.dtd" xmlns:svg="http://www.w3.org/2000/svg" xmlns:inkscape="http://www.inkscape.org/namespaces/inkscape" xmlns:cc="http://creativecommons.org/ns#">
	<defs>
		
		
			<inkscape:perspective  inkscape:persp3d-origin="372.04724 : 350.78739 : 1" sodipodi:type="inkscape:persp3d" id="perspective10" inkscape:vp_z="744.09448 : 526.18109 : 1" inkscape:vp_y="0 : 1000 : 0" inkscape:vp_x="0 : 526.18109 : 1">
			</inkscape:perspective>
		
			<inkscape:perspective  inkscape:persp3d-origin="372.04724 : 350.78739 : 1" sodipodi:type="inkscape:persp3d" id="perspective2390" inkscape:vp_z="744.09448 : 526.18109 : 1" inkscape:vp_y="0 : 1000 : 0" inkscape:vp_x="0 : 526.18109 : 1">
			</inkscape:perspective>
		
			<inkscape:perspective  inkscape:persp3d-origin="372.04724 : 350.78739 : 1" sodipodi:type="inkscape:persp3d" id="perspective2405" inkscape:vp_z="744.09448 : 526.18109 : 1" inkscape:vp_y="0 : 1000 : 0" inkscape:vp_x="0 : 526.18109 : 1">
			</inkscape:perspective>
	</defs>
	
		<sodipodi:namedview  height="744.09px" inkscape:window-y="-4" inkscape:window-x="-4" inkscape:window-height="744" inkscape:window-width="1280" inkscape:current-layer="layer1" inkscape:document-units="px" inkscape:pageshadow="2" inkscape:pageopacity="0.0" inkscape:cx="1595.2267" showgrid="false" inkscape:cy="-295.15978" bordercolor="#666666" pagecolor="#ffffff" borderopacity="1.0" id="base" objecttolerance="10" inkscape:zoom="0.24748737" gridtolerance="10000" guidetolerance="10">
		</sodipodi:namedview>
	<g id="layer1" inkscape:groupmode="layer" inkscape:label="Layer 1">
		<path id="path2411" fill="#FFFFFF" d="M2445.8,438.8l-3.9-3.7l11.7-12.7c11.8-12.9,26.6-25.4,39.4-33.4c8.8-5.5,8.4-5.1,6.5-6.3
			c-2.6-1.7-17.4-6.6-23.6-7.7l-5.8-1l-5.3,4.9c-11.1,10.3-21.1,13.3-44.8,13.3c-22.1,0-38.8-3.2-61.7-11.8c-9.7-3.7-9.7-3.7-6.5-5
			c4.3-1.8,26-6.9,39.1-9.1c14.4-2.4,53.2-3.3,67.6-1.6c15.7,1.9,29.6,5,42.8,9.6l11.3,3.9l10.6-3.8c12.3-4.5,27.4-7.9,43.4-9.8
			c14.4-1.7,53-0.7,67.7,1.7c13.3,2.2,34.6,7.1,38.9,9c3.2,1.4,3.2,1.4-6.5,5c-22.7,8.6-39.4,11.8-61.7,11.8
			c-23.6,0-32.7-2.6-44.9-13.2l-6-5.1l-5.4,1.1c-6.7,1.4-21.1,6.3-23.2,7.9c-1,0.8-1.2,1.4-0.4,1.7c3,1.3,23.4,16,29.9,21.5
			c9.1,7.8,26.8,27,26.8,29.2c0,2.3-7.1,7.6-9.5,7.2c-1.1-0.2-5.8-4.8-10.5-10.3c-12.4-14.6-31.3-31.4-45.3-40.2l-4.1-2.6l-5.7,3.6
			c-14.6,9.4-35.8,28.7-46.8,42.7C2453.6,443.7,2451.4,444.2,2445.8,438.8z M886,394.5c-29.5-6.9-52.2-27.7-62.7-57.8
			c-7.3-20.8-6.9-14.9-7.4-132.9l-0.4-107.1h26.5h26.5l0.3,101.4l0.3,101.4l2.9,11c8.4,32,25.8,46,57.1,46c20.2,0,36.9-6.8,50-20.5
			c8.6-8.9,13.8-19.4,17.7-35.4c5.7-23.3,6-29.2,6-119.9V96.8h26.5h26.5v145.8v145.8h-25.4H1005v-21.5c0-11.8-0.4-21.5-0.9-21.5
			c-0.5,0-2.8,2.9-5.1,6.4c-12.9,19.5-33.5,34.1-57.8,40.7c-8.6,2.4-13.3,2.9-29.2,3.2C898.2,396,891.1,395.7,886,394.5z
			 M1598.6,394.3c-43.2-6.7-70.5-26.7-87.8-64.3c-9.5-20.6-14-41.1-15.4-69.3c-3.8-76.9,20.3-132.7,68-157.7
			c18.4-9.7,34.8-13.4,59-13.5c27.6-0.1,46.2,5.6,66.3,20c21.7,15.6,36.7,43.5,38.8,72.3l0.7,8.8h-26.1H1676v-3.4
			c0-12.7-7.8-32.9-16.3-42.3c-15.8-17.5-45.9-21.4-69.8-9.1c-8.6,4.4-19.5,15.5-24.5,24.7c-11.3,21.1-17,54.8-15.6,92.3
			c1.5,41.2,9.9,68.4,26.1,85.3c11.9,12.4,25.1,17.8,43.3,17.8c29.6,0,49.7-17,56.8-48c1.2-5.1,2.1-11,2.1-13l0-3.7h26.3h26.3
			l-0.9,7.6c-4.7,40.4-28.6,73.2-63.8,87.7c-14.8,6.1-23.8,7.7-44.8,8.1C1610.6,394.7,1600.4,394.6,1598.6,394.3z M1850.7,392.8
			c-51.6-9.7-83.1-46.3-93.1-108.5c-2.4-15-3.3-47.5-1.7-63.4c4.1-41.3,17.3-73.6,39.5-96.6c10.2-10.6,19-17.1,31.7-23.3
			c37.4-18.3,91.7-15,126.8,7.7c11.1,7.2,24.4,21.2,31.3,33.1c14.3,24.3,19.7,48.6,19.7,88.5l0,22.3l-97.7,0.3l-97.7,0.3l-0.3,8.5
			c-0.2,4.7,0.2,13.3,0.9,19.2c6.1,51.6,35.5,79.1,79.8,74.6c30.3-3.1,46.7-16.7,54.3-45.3c1.2-4.6,2.2-9.5,2.2-10.9v-2.6h27.6h27.6
			v2.6c0,1.4-1,6.8-2.3,12c-9.4,38.8-34.9,66-72.7,77.4C1905.3,395.2,1872.8,397,1850.7,392.8z M1950,204.1
			c-0.6-22.7-8-43-20.3-55.8c-23.3-24.3-65.3-26.6-91.4-4.9c-15.7,13-26.4,36.4-27.8,61l-0.6,11l70.2-0.3l70.2-0.3L1950,204.1z
			 M1110,242.5V96.8h25.4h25.4v21.5c0,11.8,0.4,21.5,0.9,21.5c0.5,0,2.7-3,4.9-6.6c11.1-18.8,29.7-32.8,53.4-40.5
			c8.8-2.8,11-3.1,28.4-3.1c14.5,0,21.1,0.5,28.1,2c42.2,9.6,67.6,34.9,74.1,73.8c1.4,8.1,1.6,26.9,1.6,116.3v106.6h-26h-26l0-95.8
			c0-103.7-0.3-109.5-5.9-125c-8.7-24.2-28.5-36.9-57.4-36.9c-22,0-37.3,6.6-53.1,23.1c-8.4,8.8-10.3,11.4-13.2,18.7
			c-8,20.3-8.9,33.5-8.9,134.7l0,81.1h-26h-26V242.5z M1402.2,242V96.8h26.5h26.5V242v145.2h-26.5h-26.5V242z M2065.3,261.4
			l-0.3-125.7l-23.5-0.3l-23.5-0.3v-18.6V97.9l23.5-0.3l23.5-0.3l0.6-39.5c0.7-43.8,1-46,8.2-61.5c4.6-9.9,16.1-22.7,25.3-28.1
			c3.3-1.9,10.3-5,15.7-6.9c21-7.3,43.3-7.5,71.7-0.7c2.4,0.6,2.4,0.7,2.4,23.2V6.5l-5.1-0.8c-2.8-0.5-12.2-0.9-20.8-0.9
			c-19.6,0-28.8,2.4-36.3,9.7c-8.6,8.2-9.2,11.5-9.2,50.2v33.3h31.9h31.9v18.6v18.6h-31.9h-31.9v126v126h-26h-26L2065.3,261.4z
			 M2351.2,361.1c-10.2-1.2-15.7-3-24.9-7.9c-15-8.1-24.8-18.1-38.1-38.8c-7-10.9-7.2-11.3-4.7-11.7c4.2-0.6,21,5.9,36.5,14
			c26.1,13.7,46.1,27.2,55.1,37.4l4.7,5.3l-3.8,0.8C2369.2,361.5,2358.3,361.9,2351.2,361.1z M2660.2,361.5c-1.8-0.2-5.8-0.7-8.9-1
			l-5.7-0.6l1.9-3.3c2.5-4.5,12.8-13,26.4-22c12.9-8.5,46.3-26.2,55-29.1c7.7-2.6,14.2-3.6,14.2-2.3c0,1.8-12.5,20.9-18.6,28.3
			c-11.6,14.1-29.2,25.7-43.1,28.4C2673.8,361.3,2664.4,362,2660.2,361.5z M2405.9,355.4c-16-2.4-29.9-13.8-37.9-31
			c-6.3-13.5-12.5-40.1-9.5-40.1c0.6,0,4.4,2.6,8.5,5.9c23.9,18.8,53.3,48.4,58.1,58.5l2.9,6.2l-2.5,0.7
			C2422.3,356.7,2413.7,356.6,2405.9,355.4z M2599.2,355.8c-2.9-0.6-2.6-2.8,1.7-9.9c7.6-12.8,63-64.3,65.9-61.3
			c1.1,1.1-1.8,16.6-5.1,27.4c-5.7,18.8-15.2,31.6-28.6,38.5C2623.4,355.5,2608.9,357.8,2599.2,355.8z M2483.2,335.8
			c-75.5-12.8-135.3-71.1-152.4-148.6c-3.7-16.6-4.8-30.6-4.1-50.7c1.1-30.5,6.1-51.1,19.2-78.6c4.1-8.7,10.8-20.6,14.8-26.5
			c9-13.2,28.1-33.5,40.3-42.9c44.3-33.9,98.8-45.8,152.5-33.3c16.3,3.8,24.8,7,41.7,15.8c51.1,26.5,86.7,74.9,99.2,134.9
			c2.2,10.5,2.5,15,2.5,38.4c0,29.2-1.3,38.7-8.1,60.4c-4.5,14.2-16.9,39.8-25.6,52.5c-9.4,13.8-29.4,34.6-42.5,44.3
			c-20.7,15.3-46.2,27-70.9,32.6C2535.8,337.3,2497.7,338.2,2483.2,335.8z M2445.9,294.2c4.2-1.6,12.7-4.9,19-7.5
			c15.5-6.2,28.6-10.1,39-11.4c10.6-1.4,13.7-2.8,16.9-7.8c2.9-4.5,3.1-9.3,0.8-16.6c-0.9-2.9-2.3-11.2-3.1-18.5
			c-0.8-7.3-2.2-15.1-3.2-17.3c-2-4.5-8.2-10.8-18.8-19.2c-9.1-7.2-11.3-11-10.7-18.6c0.3-4.7,1.1-6.7,3.6-9.4
			c2.4-2.6,3.3-4.8,3.7-9.3c0.5-5.2,0.9-5.9,3.3-6.3c4.4-0.6,5.4-2.3,5.4-8.8c0-5.6,0.2-6.1,2.6-6.1c4.1,0,5.7-2.8,4-7.2
			c-3.8-9.8-2.5-13.2,5.2-13.2c6.8,0,18.5-2.7,23.6-5.5c2.3-1.2,9.3-7.5,15.5-13.9c16.5-17,27.8-22.4,47.1-22.4
			c11.3,0,19.4,1.9,28.9,6.9c25,13.1,42.4,34.4,48.5,59.5c2.9,11.8,2.9,31.7-0.1,43.9c-3.8,15.7-8.7,24.5-20.4,36.6
			c-16.5,17-29.9,23.7-48.2,24.3c-12,0.3-12.9,1.2-12.3,11.9c0.7,11.6,7.5,22.5,19,30.7c5.7,4.1,5.4,4.2,19.5-9.8
			c39.8-39.6,60.4-95.1,55.6-150.3c-2.3-26.6-10.3-53.5-22.6-76.4c-2.6-4.8-5.1-9-5.6-9.3c-0.5-0.3-3.3,1-6.2,2.9s-9.7,6-15,9.1
			c-5.4,3.1-9.9,5.7-10,5.9c-0.2,0.1,0.9,3.1,2.4,6.6l2.7,6.3l-4.6-2.1c-2.5-1.2-5.3-3.4-6.2-4.9c-1.3-2.2-2.1-2.6-3.5-1.7
			c-1.2,0.7-4.4,0.5-9.2-0.5c-6.1-1.3-6.8-1.7-4.5-2.3c1.6-0.4,5.1-1.8,7.9-3l5.1-2.3l-3.5-6.5c-4.5-8.3-15.8-25.7-17.9-27.5
			c-1.3-1.1-3.4-0.5-11,3.3c-5.2,2.6-12.4,5.7-15.9,7.1c-3.6,1.4-6.7,2.6-6.9,2.8c-0.2,0.2,1.9,7.5,4.7,16.3s4.9,16.2,4.6,16.4
			c-0.3,0.3-1.9,0.8-3.6,1.1l-3.2,0.7l-5-15.6c-5.7-18.1-3.5-16.7-22.1-13.6c-6,1-14.1,2.1-18.1,2.5l-7.3,0.7v18.6v18.6l8.4-0.7
			c4.6-0.4,12.9-1.2,18.4-1.7s11-1.1,12.4-1.1h2.4l-2.6,2.9c-4.3,4.8-6.3,5.4-22.6,6.6l-15.7,1.2l-0.3,6.5l-0.3,6.5h-3.7h-3.7V73.8
			V45.1l-5.7-0.7c-3.1-0.4-7.2-0.7-9.1-0.7c-2.7,0-3.8-0.8-5.6-4l-2.2-3.9l11.3,0.7l11.3,0.7v-16c0-11.9-0.4-16.1-1.4-16.4
			c-0.7-0.2-4.8-1-8.9-1.7c-4.2-0.7-8.9-1.6-10.4-1.9c-2.7-0.6-3.2,0-8.4,9.9c-3,5.8-5.7,11-5.9,11.6c-0.4,1.1-6.1-2.7-6.1-4
			c0-0.4,2.4-5.2,5.3-10.7c3.8-7.2,5-10.3,4.1-10.9c-0.7-0.5-4.6-2.9-8.7-5.4l-7.4-4.6l-10.2,8.6c-10.1,8.6-10.2,8.6-14.7,7.7
			l-4.6-0.9l11.6-10.1c6.4-5.6,11.4-10.5,11.3-10.9c-0.1-0.4-2.1-2.9-4.4-5.5l-4.1-4.8l-5.6,2.5c-20.9,9.2-45.9,28.4-61.6,47.1
			c-24,28.8-40.4,67.2-43.5,102c-0.4,4-0.9,9.3-1.2,11.6c-0.3,2.4-0.1,4.2,0.6,4.2c0.6,0,4.6-2.8,8.9-6.3
			c4.3-3.5,11.2-8.4,15.4-10.9c16.4-9.9,17.7-13.1,13.6-33.7c-2.4-12-2.8-25.2-1-34.1c3.7-18.2,16.8-33.1,34.6-39.4
			c5.8-2.1,8.7-2.4,18.3-2c9.5,0.4,12.8,1,19.6,3.9c16.8,7,32.9,20.8,39.9,34.3c3.5,6.8,3.8,8,3.8,17.5c0,11.3-2,17.2-9.7,28.9
			c-4,6.1-4,6.2-3.3,14.3l0.7,8.1l-3.3,1.8c-2.5,1.4-3.3,2.5-3.3,5.1c0,1.8-0.7,3.7-1.5,4.2c-0.8,0.5-1.7,2.2-1.9,3.7
			c-0.3,1.9-1.2,2.9-2.8,3.2c-1.3,0.2-3.7,2.1-5.2,4.2c-5,6.8-10.7,7.6-26.2,3.8c-9.5-2.4-10.2-2.4-13.8-0.6
			c-5.1,2.6-5.6,5.4-2.9,19.2c2.8,14.4,6.7,43.4,6.7,49.4c0,11.2,4.9,14.3,26,16.5l15.1,1.6l6.2-4.5c5.4-3.9,6.9-4.5,11.1-4.2
			c4.4,0.3,4.9,0.6,4.5,2.9c-0.3,2.5-0.1,2.5,5.4,1.9c4.6-0.6,6.1-0.3,7.2,1.1c2.2,2.8,1,12.9-2.5,20.3
			c-4.9,10.5-12.5,13.6-24.8,10.4c-6.5-1.7-7.9-1.7-15.6-0.2c-17.7,3.6-25,4.5-35.1,4.5c-9,0-11.2-0.4-16-2.9l-5.6-2.9l-1.7,2.7
			c-2.7,4.3-4.6,10.8-4.6,15.9c0,4.6,0.2,4.9,9.2,12.4c5.1,4.2,10.3,8.1,11.6,8.5c1.3,0.4,8,0.7,14.8,0.5
			C2436,297.2,2439.7,296.6,2445.9,294.2z M2651.3,39.9l6.3-4.2l-4.9-6.5c-2.7-3.6-9.5-11.3-15.2-17.2c-7.8-8.1-10.7-10.4-11.8-9.6
			c-8.6,6.5-17.7,13.3-18.9,14c-1.1,0.7,0.2,3.4,5.5,11.5c3.8,5.8,8.8,14.1,11,18.3l4.1,7.7l8.8-4.9
			C2641,46.3,2647.8,42.2,2651.3,39.9z M2542.9,34c5-1,9.7-2.2,10.5-2.6c1.1-0.6-0.2-4.2-5.2-14.3c-8.1-16.4-8.3-16.7-11.8-15.7
			c-1.5,0.4-6.7,1.4-11.4,2.1l-8.7,1.3l-0.3,16.2l-0.3,16.2l9.1-0.7C2529.7,36.1,2537.9,35,2542.9,34z M2570.6,26.1
			c11.7-4.6,21.9-9.8,21.9-11.1c0-1.6-15-16.6-23-23.1l-6.1-4.9l-3,2.2c-1.7,1.2-5.2,3.4-7.9,4.8c-2.7,1.4-5.1,2.7-5.3,3
			c-0.6,0.6,14.3,31.9,15.3,32C2562.9,28.9,2566.6,27.7,2570.6,26.1z M2610.3,4.4c4.7-3.6,8.8-7.1,9-7.9
			c0.6-1.8-18.9-15.1-30.7-20.8l-9.4-4.6l-4.8,5.4l-4.8,5.4l3.6,2.9c7.7,6.3,20.2,18.3,23,22.1c1.6,2.2,3.5,4,4.2,4
			C2601.1,10.9,2605.6,7.9,2610.3,4.4z M2508.1-17.4c0-8.1-0.4-14.7-0.9-14.7c-0.5,0-2.1,1.7-3.5,3.7c-8,11.2-14,20.4-14,21.2
			c0,0.8,2.6,1.5,13.5,3.8C2508.2-2.3,2508.1-2,2508.1-17.4z M2529-5.1c2.8-0.6,5.1-1.7,5.1-2.3c0-1.5-10-16.5-14.6-22l-3.7-4.4
			l0,15.6l0,15.6l4.1-0.7C2522-3.6,2526.1-4.5,2529-5.1z M2486.8-17.1c2.7-4.2,6.5-9.8,8.4-12.4s2.9-4.8,2.2-4.8
			c-3.7,0-29.6,15.5-28.7,17.1c0.7,1.1,11.3,7.8,12.5,7.8C2481.5-9.5,2484-12.9,2486.8-17.1z M2549.4-13c3.5-2,6.4-4,6.4-4.5
			c0-2.2-27.5-17.8-28.8-16.4c-0.3,0.3,2.7,5.3,6.7,11.1c4,5.8,7.5,11.2,7.8,12C2542.1-8.9,2542.1-9,2549.4-13z M2466.3-26.2
			c2.5-1.8,8.4-5.4,13.2-8c10.5-5.8,12-7.1,7-6.2c-8.8,1.5-20.5,4.3-26.9,6.4l-6.9,2.2l4.1,4.4c2.3,2.4,4.3,4.4,4.5,4.4
			C2461.6-23,2463.8-24.5,2466.3-26.2z M2568.7-28.3c1.9-2.6,2-3.2,0.7-4c-4.1-2.4-35.3-9.6-35.3-8.2c0,0.2,4.7,2.9,10.5,6.1
			c5.7,3.2,12.2,7,14.2,8.5C2563-22.8,2564.9-23.2,2568.7-28.3z M2347.1,318.8c-8.8-6.2-17.1-15.8-21.7-25.3
			c-6.2-12.7-7.2-17.7-7.2-35.7c0-12.9,0.5-17.7,2.6-26.3c1.4-5.7,2.9-10.5,3.3-10.5s2.3,2.5,4.2,5.6c10.7,17.1,25.2,66.8,25.3,86.7
			c0,4.6-0.2,8.6-0.4,8.8S2350.2,320.9,2347.1,318.8z M2671.1,318.3c-2.5-16.4,14.9-77.5,26.8-93.7l2.8-3.8l1.2,3.3
			c4.8,13.2,6.7,37.6,3.9,51.3c-2.8,13.8-8.3,24-18.4,34.5c-4.8,5-10.3,9.9-12.2,11l-3.3,2L2671.1,318.3z M2310.7,304.1
			c-11.4-5.2-19-10.6-28.5-20.2c-12.9-13-22-26.8-29.1-44.1c-3.7-9-7.4-23-6.4-24.1c1.1-1.1,14.6,9.6,23.8,18.8
			c21.5,21.6,43.3,51.7,49.7,68.7C2322.4,309.2,2322,309.2,2310.7,304.1z M2705,302.3c5.5-15,24.8-41.8,45.9-63.8
			c13-13.5,25.9-24.2,27.4-22.7c1.2,1.2-5.1,21.2-9.5,30.4c-9.4,19.6-23.3,37.4-37.4,47.9c-6.7,5-20,11.9-25.5,13.3l-3,0.7
			L2705,302.3z M2299.7,254.3c-2.3-3.7-5.4-10.3-6.9-14.6c-2.4-6.9-2.7-9.7-2.7-22c0-12.9,0.3-15.1,3.5-24.9
			c3.3-10,11.2-26.2,15.2-30.9c1.7-2,1.8-1.9,3.2,2.8c5,17.1,1.1,77.5-6.1,92l-2.2,4.4L2299.7,254.3z M2718.4,255.4
			c-5.2-12.8-8.4-40.6-7.6-67.4c0.3-10.3,1.1-20.7,2-23.7l1.5-5.3l3.1,4.8c14.3,22,20.6,47.8,16.6,67.4c-1.8,8.7-7.4,22.2-11.1,27
			l-2.1,2.7L2718.4,255.4z M2272.8,225c-9.1-7.1-17.2-17.5-22.8-29.4c-7.1-15.1-9.2-25.7-9.9-48.3c-0.3-10.6-0.2-18.9,0.4-18.9
			c3.8,0.1,23.3,37.8,31.2,60.3c7,19.8,11.4,41.4,8.4,41.4C2279.6,230.1,2276.3,227.8,2272.8,225z M2744,225.7
			c0-5.8,4.2-22.9,9.1-36.9c8.4-23.9,28.2-61.6,31.3-59.6c1.5,1,0.1,33.7-1.9,43c-3.5,16.5-10.5,31.6-19.8,42.5
			c-3.8,4.4-16.6,15.5-17.9,15.5C2744.4,230.1,2744,228.1,2744,225.7z M2280.6,193.3c-0.3-0.6-1.4-4.2-2.3-8
			c-2.2-8.8-2.2-23.9-0.1-32.6c3.6-14.7,13.6-32,25.5-44l6.7-6.8l-0.7,10.2c-1.2,18.8-8.5,44-19.1,66.1
			C2285.1,189.7,2281.6,194.9,2280.6,193.3z M2739.2,187.8c-12.1-19.7-24.5-59.8-24.3-78.8l0-7.2l8.3,9.2
			c9.7,10.7,17.5,23.7,21.5,35.6c4.6,13.9,4.6,33-0.1,44.5l-1.4,3.4L2739.2,187.8z M2754.9,147.2c-1-6.1-1.2-15.1-0.8-30.9
			c0.8-28.6,3.9-49.5,9.3-62.6l2-4.9l3.3,10.7c7.3,23.8,8.3,50.2,2.8,68.4c-2.2,7.3-8.2,19.3-12.1,24.2l-3,3.8L2754.9,147.2z
			 M2263.6,149.6c-11-15.6-15.7-37.4-13.1-61.9c1.3-12.2,5.4-30.4,8.1-35.8c1.5-3,1.5-2.9,4.3,6.1c5.4,17.8,8.3,41.2,8.3,66.8
			c0,14.7-1.7,29.7-3.3,29.7C2267.4,154.4,2265.5,152.2,2263.6,149.6z M2280.4,115.3c-1.5-8.4,1.6-23.2,7.3-34.8
			c5.5-11.1,15.9-22.4,29.2-31.6c5.2-3.6,9.8-6.3,10-6c1.1,1.2-6.4,20.3-12.7,32c-10,18.8-21.8,35.4-29.6,41.6l-3.6,2.9
			L2280.4,115.3z M2736.7,112.7c-12.5-13.2-29.6-43.4-35.3-62.2c-1.4-4.7-2.4-8.8-2.2-9c0.7-0.7,16.5,11,22.6,16.8
			c7.8,7.4,15.1,18.1,18.5,26.9c3.3,8.4,5.5,25.2,4.1,30.6l-1,3.9L2736.7,112.7z M2274.9,72.7c-1.3-8.9,0-20.9,3-28.7
			c4.7-12.1,9.6-19.3,21.7-32.3L2311.3-1l-0.7,5.6c-1.1,9.1-5.7,26.4-9.7,36c-5.3,12.8-9.9,20.4-18.1,29.4l-7.2,8L2274.9,72.7z
			 M2745.5,74.4c-12.5-11.2-24.4-35.3-29.7-60.1c-3.5-16.5-3.4-16.6,7.2-5.6c10.4,10.7,20.6,25.8,24.3,35.7
			c2.7,7.3,4.1,23.3,2.5,29.4l-0.9,3.6L2745.5,74.4z M1397.8-1v-29.9h30.8h30.8V-1V29h-30.8h-30.8V-1z"/>
	</g>
</g>
<g id="Layer_2">
	<g>
		<path fill="#FFFFFF" d="M2942.2,233.2c1.1,64.6,42.4,91.2,90.1,91.2c34.2,0,54.8-6,72.8-13.6l8.1,34.2
			c-16.8,7.6-45.6,16.3-87.4,16.3c-80.9,0-129.2-53.2-129.2-132.5c0-79.3,46.7-141.7,123.3-141.7c85.8,0,108.6,75.5,108.6,123.8
			c0,9.8-1.1,17.4-1.6,22.3H2942.2z M3082.3,199c0.5-30.4-12.5-77.6-66.2-77.6c-48.3,0-69.5,44.5-73.3,77.6H3082.3z"/>
		<path fill="#FFFFFF" d="M3240.9,30.1h-111.3v-40.2h271v40.2h-111.9v325.8h-47.8V30.1z"/>
		<path fill="#FFFFFF" d="M3638.9,222.3c0,97.2-67.3,139.6-130.9,139.6c-71.1,0-126-52.1-126-135.2c0-88,57.6-139.6,130.3-139.6
			C3587.8,87.1,3638.9,142,3638.9,222.3z M3430.4,225c0,57.6,33.1,101,79.8,101c45.6,0,79.8-42.9,79.8-102.1
			c0-44.5-22.3-101-78.7-101C3454.8,123,3430.4,175.1,3430.4,225z"/>
		<path fill="#FFFFFF" d="M3937,222.3c0,97.2-67.3,139.6-130.9,139.6c-71.1,0-126-52.1-126-135.2c0-88,57.6-139.6,130.3-139.6
			C3886,87.1,3937,142,3937,222.3z M3728.5,225c0,57.6,33.1,101,79.8,101c45.6,0,79.8-42.9,79.8-102.1c0-44.5-22.3-101-78.7-101
			C3752.9,123,3728.5,175.1,3728.5,225z"/>
		<path fill="#FFFFFF" d="M3997.3-29.6h47.8v385.5h-47.8V-29.6z"/>
		<path fill="#FFFFFF" d="M4118.9,307c14.1,9.2,39.1,19,63,19c34.8,0,51-17.4,51-39.1c0-22.8-13.6-35.3-48.9-48.3
			c-47.2-16.8-69.5-42.9-69.5-74.4c0-42.4,34.2-77.1,90.7-77.1c26.6,0,50,7.6,64.6,16.3l-11.9,34.8c-10.3-6.5-29.3-15.2-53.8-15.2
			c-28.2,0-44,16.3-44,35.8c0,21.7,15.7,31.5,50,44.5c45.6,17.4,69,40.2,69,79.3c0,46.2-35.8,78.7-98.3,78.7
			c-28.8,0-55.4-7.1-73.8-17.9L4118.9,307z"/>
	</g>
</g>
</svg>
