<svg xmlns="http://www.w3.org/2000/svg" viewBox="0 0 400 400"><path fill="#09F" d="M74.5 42.3c-3.8-.5-7.4.6-10.4 3-6.1 5-7 14.1-2.2 20.1 2.3 3 5.6 4.9 9.3 5.4 3.8.4 7.4-.6 10.4-3 .5-.4.9-.8 1.3-1.2 4.9-5.2 5.3-13.3.9-19-2.3-3-5.6-4.9-9.3-5.3zm2.8 18.6l-.5.6c-1.3 1-3 1.6-4.6 1.4s-3.1-1-4.1-2.4c-2-2.4-1.8-6 .9-8.8l.1-.1c1.3-1 3-1.6 4.7-1.4 1.6.2 3 1 4.1 2.3 1.7 2.5 1.6 6.2-.6 8.4zM64.9 80.2c-3.4-1.4-7.4.4-8.7 4l-20.1 53.9c-1.3 3.6.4 7.5 3.9 8.9 2.6 1 5.4.3 7.2-1.6.6-.6 1.1-1.4 1.5-2.3l20.1-53.9c1.3-3.7-.4-7.7-3.9-9zm266.9-16.3c4.6-4.8 5-12.5.9-17.8a12.6 12.6 0 0 0-8.7-5c-3.5-.4-7 .6-9.8 2.9-5.8 4.6-6.5 13.2-2.1 18.8 2.2 2.8 5.2 4.6 8.8 5s7-.6 9.8-2.9c.3-.2.8-.6 1.1-1zm-5.5-5.5l-.5.4c-1.2 1-2.6 1.4-4 1.2s-2.7-.9-3.5-2.1c-1.6-2.1-1.6-5.1.8-7.6l.1-.1c1.2-1 2.6-1.4 4.1-1.2 1.4.2 2.6.9 3.5 2 1.5 2.3 1.3 5.4-.5 7.4zm66.7 77.5L350.2 31.2c-2.7-6.5-7.6-11.5-14-14.2-6.3-2.6-13.4-2.6-19.7.1L297 25.4c-10.6 4.6-16.7 16.2-15.5 27.5-10 5.9-29-4-35.5-8.5-23.4-14.5-41.8-9.2-46.8-7.3l-88.5 7.3c-.4-2.5-1-4.9-2-7.2-3-6.3-8.1-11-14.5-13.3l-19.7-7c-12.8-4.6-28 2.7-32.5 15.8L5.5 137.3c-2.3 6.5-1.9 13.5 1 19.7 2.9 6.2 8.1 11 14.5 13.4l19.6 7c9.4 3.4 19.9.9 26.8-6.4 2.3-2.4 4.1-5.3 5.3-8.5 3.5 1.4 8.1 4.2 10.7 10.2.2.6.6.9.9 1.4-1.6 3.8-2.3 8-1.7 12.2.8 6.3 4 11.9 8.9 15.8 6.9 5.4 16 6.3 23.5 3-1.6 9.9 1.2 19.4 8.2 24.8 4.5 3.5 10.2 4.7 16 3.8-.2 2.4-.2 4.7.1 7 .8 5.8 3.7 10.8 8.1 14 7 5 16.9 4.6 26.1-.2-.1 1.2-.2 2.5-.1 3.8.5 6 3.1 11.2 7.3 14.7 9.4 7.9 24.6 5.4 35.2-5.8.7-.7 1.4-1.5 2.1-2.4l6.5-8.1c3.8-4.6 6.3-9.8 7.4-15.3 6.2 4.4 12.2 5.9 18.1 4.4 3.8-1 7-3.2 9.5-5.9 3.6-3.8 6-8.5 7.5-12.2 1.7.1 3.4.1 5.2-.4 4.1-1 7.5-3.4 10.2-6.2 3.3-3.5 5.6-7.6 7.1-11 2.2.5 4.2.5 6.2.1 2.7-.6 4.6-2 5.9-3.5 1.8-1.4 3.3-2.7 4.6-4.1 5.9-6.2 7.4-12.5 7.4-17.1.1-2.2-.2-4.3-.7-6.4l17.8-6.9c2.5 2.8 5.6 5 9.1 6.5 6.3 2.6 13.4 2.6 19.7-.1l19.5-8.3c3.2-1.4 6.1-3.4 8.5-5.9a26.4 26.4 0 0 0 5.5-28.5zm-332.5 21c-2.2 6.2-9.3 9.6-15.4 7.4l-19.6-7c-3-1.1-5.5-3.3-6.9-6.2-1.3-2.9-1.5-6.2-.5-9.1L54.6 37.3c.5-1.7 1.5-3.1 2.7-4.4 3.3-3.4 8.3-4.6 12.7-3l19.7 7c3 1.1 5.5 3.3 6.9 6.2 1.3 2.9 1.5 6.2.5 9.2L60.5 156.9zm57.6 26.5l-4.5 5.9c-3.4 4.5-9.5 5.2-13.8 1.8-2.1-1.7-3.4-4-3.8-6.7-.3-2.6.3-5.3 2-7.4l4.5-5.9c.2-.3.5-.6.8-.9 3.4-3.6 9.1-4.1 13.1-1 2.1 1.7 3.4 4 3.8 6.7.2 2.7-.5 5.3-2.1 7.5zm30.2 29.7c-.1.2-.2.2-.2.4-5.3 6-12.6 8.3-16.6 5.3-4.3-3.3-4.8-13.1 1.2-21.8l6.1-9c.8-1.1 1.7-2.2 2.6-3.2 5.2-5.5 12.1-7.4 16-4.4 4.8 3.7 4.3 13.9-1.2 21.8l-5.7 8.3-2.2 2.6zm29.1 20.8c-7.6 9.7-18.1 12.5-22.3 9.5-1.3-1-2.2-2.5-2.5-4.6-.7-4.9 1.6-11.4 6-16.9l1.8-2.2c.2-.2.3-.3.5-.6l.1-.1 5.1-6.5c.6-.8 1.3-1.6 2-2.4 7.5-7.9 16.3-9.8 20.3-7 1.3 1 2.1 2.5 2.4 4.6.7 4.9-1.6 11.4-6 16.9l-7.4 9.3zm-3.5-43.6v-.5l.3.3c0 .1-.2.1-.3.2zm45.5 45.4c-.2 4-2.1 8.5-5.1 12.2l-6.5 8.1c-5.7 7-14.2 9.8-18.4 6.2-1.8-1.4-2.3-3.8-2.4-5.4-.4-4.5 1.5-9.8 5.1-14.2l6.5-8.1c.5-.6.9-1 1.4-1.5 5.6-5.8 13.2-7.9 17-4.7 2.4 2 2.5 5.6 2.4 7.4zm73.8-39.7c-.2.2-.5.4-.8.6-2-.4-8-2.6-21-15l-47.6-42.4c-2.8-2.5-6.8-2.1-9.5.6-2.4 2.9-2.1 7.2.7 9.7l47.5 42.2c5.6 5.3 10.6 9.4 15.1 12.5-1.8 3.9-4.8 8.6-8.3 9.5-4.1 1-9.2-3.8-12.4-7l-52.8-47c-2.8-2.5-7.1-2.3-9.5.7-2.4 2.9-2.1 7.2.7 9.7l52.6 46.6c2.3 2.5 4.6 4.4 7 6.1-1.7 4-4.5 8.6-7.7 9.5-2.9.7-7-1.6-12.3-7.1L181 177.5c-2.7-2.3-6.6-2.2-9 .3-1.5-3.4-3.6-6.2-6.5-8.5-8.8-6.9-22-5-32.1 4.2-.9-6.2-4-11.7-8.8-15.4-9.7-7.7-23.6-6.3-31.7 3.4-4.5-6.6-10.5-10.2-15.3-12.1l31.8-91.1 67.7-5.5-17.5 12.6c-.6.4-1.1 1-1.6 1.6-.5.6-10.9 15.7-8.5 35.4-2 4.2-5.2 12.7-3 19.9 1.2 3.8 3.6 6.7 7.4 8.6.6.3 16.2 7 30.2-1.8 9.9-6.2 16-18.1 18.2-35.4l8.4-.5 75.3 69.7c3.8 3 14.7 13.3 14.5 22.1-.1 1.7-.2 6-7.3 11zm14.3-29.4c-5.3-7.9-12.1-13.4-13.1-14.1l-76.9-71.2c-1.3-1.3-3.1-1.8-4.9-1.8l-16.9 1c-3.4.2-6.1 2.9-6.3 6.3-1.1 15.7-5.4 26.3-12.4 30.6-7.8 5-17.6 1-17.8 1-.7-1.3.5-7 3-11.4.7-1.4 1-3 .8-4.6-2.2-12.8 3.5-23.6 5.3-26.6L203.9 50c2-.8 15.9-5.8 35 6 3.1 2.2 28.3 18.7 47.1 10.2l38.2 93.7-16.7 6.7zm66.5-9l-19.5 8.3c-3 1.3-6.3 1.3-9.4 0-3-1.3-5.4-3.7-6.6-6.8L295.7 54.5c-1.9-4.6-.9-10 2.5-13.6 1.2-1.2 2.5-2.2 4.1-2.8l19.5-8.3c3-1.3 6.3-1.3 9.4 0 3 1.3 5.4 3.7 6.6 6.8l42.8 104.6c2.5 6.2-.5 13.7-6.6 16.4zM340.4 81c-1.4-3.5-5.3-5.2-8.8-3.8-3.4 1.4-5.1 5.4-3.8 9l22.4 56.6c1.4 3.5 5.3 5.2 8.8 3.8.9-.4 1.6-.9 2.3-1.6 1.8-1.9 2.4-4.8 1.4-7.4L340.4 81z"/><g fill="#09F" stroke="#09F" stroke-width="2" stroke-miterlimit="10"><path d="M31.2 326.4c0-6.2-.2-11.2-.4-15.8h7.9l.4 8.3h.2c3.6-5.9 9.3-9.4 17.2-9.4 11.7 0 20.5 9.9 20.5 24.6 0 17.4-10.6 26-22 26-6.4 0-12-2.8-14.9-7.6h-.2v26.3h-8.7v-52.4zm8.7 12.9c0 1.3.2 2.5.4 3.6 1.6 6.1 6.9 10.3 13.2 10.3 9.3 0 14.7-7.6 14.7-18.7 0-9.7-5.1-18-14.4-18-6 0-11.6 4.3-13.3 10.9-.3 1.1-.6 2.4-.6 3.6v8.3zM114.9 359l-.7-6.1h-.3c-2.7 3.8-7.9 7.2-14.8 7.2-9.8 0-14.8-6.9-14.8-13.9 0-11.7 10.4-18.1 29.1-18v-1c0-4-1.1-11.2-11-11.2-4.5 0-9.2 1.4-12.6 3.6l-2-5.8c4-2.6 9.8-4.3 15.9-4.3 14.8 0 18.4 10.1 18.4 19.8v18.1c0 4.2.2 8.3.8 11.6h-8zm-1.3-24.7c-9.6-.2-20.5 1.5-20.5 10.9 0 5.7 3.8 8.4 8.3 8.4 6.3 0 10.3-4 11.7-8.1.3-.9.5-1.9.5-2.8v-8.4zM136.3 325.7c0-5.7-.1-10.6-.4-15.1h7.7l.3 9.5h.4c2.2-6.5 7.5-10.6 13.4-10.6 1 0 1.7.1 2.5.3v8.3c-.9-.2-1.8-.3-3-.3-6.2 0-10.6 4.7-11.8 11.3-.2 1.2-.4 2.6-.4 4.1V359h-8.7v-33.3zM182 296.7v13.9h12.6v6.7H182v26.1c0 6 1.7 9.4 6.6 9.4 2.3 0 4-.3 5.1-.6l.4 6.6c-1.7.7-4.4 1.2-7.8 1.2-4.1 0-7.4-1.3-9.5-3.7-2.5-2.6-3.4-6.9-3.4-12.6v-26.4h-7.5v-6.7h7.5V299l8.6-2.3zM204.5 323.7c0-5-.1-9.1-.4-13.1h7.8l.5 8h.2c2.4-4.6 8-9.1 16-9.1 6.7 0 17.1 4 17.1 20.6V359h-8.8v-27.9c0-7.8-2.9-14.3-11.2-14.3-5.8 0-10.3 4.1-11.8 9-.4 1.1-.6 2.6-.6 4.1V359h-8.8v-35.3zM264.9 336.4c.2 11.9 7.8 16.8 16.6 16.8 6.3 0 10.1-1.1 13.4-2.5l1.5 6.3c-3.1 1.4-8.4 3-16.1 3-14.9 0-23.8-9.8-23.8-24.4s8.6-26.1 22.7-26.1c15.8 0 20 13.9 20 22.8 0 1.8-.2 3.2-.3 4.1h-34zm25.8-6.3c.1-5.6-2.3-14.3-12.2-14.3-8.9 0-12.8 8.2-13.5 14.3h25.7zM310.1 325.7c0-5.7-.1-10.6-.4-15.1h7.7l.3 9.5h.4c2.2-6.5 7.5-10.6 13.4-10.6 1 0 1.7.1 2.5.3v8.3c-.9-.2-1.8-.3-3-.3-6.2 0-10.6 4.7-11.8 11.3-.2 1.2-.4 2.6-.4 4.1V359h-8.7v-33.3zM341.6 350c2.6 1.7 7.2 3.5 11.6 3.5 6.4 0 9.4-3.2 9.4-7.2 0-4.2-2.5-6.5-9-8.9-8.7-3.1-12.8-7.9-12.8-13.7 0-7.8 6.3-14.2 16.7-14.2 4.9 0 9.2 1.4 11.9 3l-2.2 6.4c-1.9-1.2-5.4-2.8-9.9-2.8-5.2 0-8.1 3-8.1 6.6 0 4 2.9 5.8 9.2 8.2 8.4 3.2 12.7 7.4 12.7 14.6 0 8.5-6.6 14.5-18.1 14.5-5.3 0-10.2-1.3-13.6-3.3l2.2-6.7z"/></g></svg>