<?xml version="1.0" encoding="utf-8"?>
<!-- Generator: Adobe Illustrator 18.1.1, SVG Export Plug-In . SVG Version: 6.00 Build 0)  -->
<svg version="1.1" id="Layer_1" xmlns="http://www.w3.org/2000/svg" xmlns:xlink="http://www.w3.org/1999/xlink" x="0px" y="0px"
	 viewBox="0 0 400 400" enable-background="new 0 0 400 400" xml:space="preserve">
<g>
	<g>
		<g>
			<path fill="#0099FF" d="M74.5,42.3c-3.8-0.5-7.4,0.6-10.4,3c-6.1,5-7,14.1-2.2,20.1c2.3,3,5.6,4.9,9.3,5.4
				c3.8,0.4,7.4-0.6,10.4-3c0.5-0.4,0.9-0.8,1.3-1.2c4.9-5.2,5.3-13.3,0.9-19C81.5,44.6,78.2,42.7,74.5,42.3z M77.3,60.9l-0.5,0.6
				c-1.3,1-3,1.6-4.6,1.4s-3.1-1-4.1-2.4c-2-2.4-1.8-6,0.9-8.8l0.1-0.1c1.3-1,3-1.6,4.7-1.4c1.6,0.2,3,1,4.1,2.3
				C79.6,55,79.5,58.7,77.3,60.9z M64.9,80.2c-3.4-1.4-7.4,0.4-8.7,4l-20.1,53.9c-1.3,3.6,0.4,7.5,3.9,8.9c2.6,1,5.4,0.3,7.2-1.6
				c0.6-0.6,1.1-1.4,1.5-2.3l20.1-53.9C70.1,85.5,68.4,81.5,64.9,80.2z M331.8,63.9c4.6-4.8,5-12.5,0.9-17.8c-2.1-2.8-5.2-4.6-8.7-5
				c-3.5-0.4-7,0.6-9.8,2.9c-5.8,4.6-6.5,13.2-2.1,18.8c2.2,2.8,5.2,4.6,8.8,5s7-0.6,9.8-2.9C331,64.7,331.5,64.3,331.8,63.9z
				 M326.3,58.4l-0.5,0.4c-1.2,1-2.6,1.4-4,1.2s-2.7-0.9-3.5-2.1c-1.6-2.1-1.6-5.1,0.8-7.6l0.1-0.1c1.2-1,2.6-1.4,4.1-1.2
				c1.4,0.2,2.6,0.9,3.5,2C328.3,53.3,328.1,56.4,326.3,58.4z M393,135.9L350.2,31.2c-2.7-6.5-7.6-11.5-14-14.2
				c-6.3-2.6-13.4-2.6-19.7,0.1L297,25.4c-10.6,4.6-16.7,16.2-15.5,27.5c-10,5.9-29-4-35.5-8.5c-23.4-14.5-41.8-9.2-46.8-7.3
				l-88.5,7.3c-0.4-2.5-1-4.9-2-7.2c-3-6.3-8.1-11-14.5-13.3l-19.7-7c-12.8-4.6-28,2.7-32.5,15.8L5.5,137.3
				c-2.3,6.5-1.9,13.5,1,19.7c2.9,6.2,8.1,11,14.5,13.4l19.6,7c9.4,3.4,19.9,0.9,26.8-6.4c2.3-2.4,4.1-5.3,5.3-8.5
				c3.5,1.4,8.1,4.2,10.7,10.2c0.2,0.6,0.6,0.9,0.9,1.4c-1.6,3.8-2.3,8-1.7,12.2c0.8,6.3,4,11.9,8.9,15.8c6.9,5.4,16,6.3,23.5,3
				c-1.6,9.9,1.2,19.4,8.2,24.8c4.5,3.5,10.2,4.7,16,3.8c-0.2,2.4-0.2,4.7,0.1,7c0.8,5.8,3.7,10.8,8.1,14c7,5,16.9,4.6,26.1-0.2
				c-0.1,1.2-0.2,2.5-0.1,3.8c0.5,6,3.1,11.2,7.3,14.7c9.4,7.9,24.6,5.4,35.2-5.8c0.7-0.7,1.4-1.5,2.1-2.4l6.5-8.1
				c3.8-4.6,6.3-9.8,7.4-15.3c6.2,4.4,12.2,5.9,18.1,4.4c3.8-1,7-3.2,9.5-5.9c3.6-3.8,6-8.5,7.5-12.2c1.7,0.1,3.4,0.1,5.2-0.4
				c4.1-1,7.5-3.4,10.2-6.2c3.3-3.5,5.6-7.6,7.1-11c2.2,0.5,4.2,0.5,6.2,0.1c2.7-0.6,4.6-2,5.9-3.5c1.8-1.4,3.3-2.7,4.6-4.1
				c5.9-6.2,7.4-12.5,7.4-17.1c0.1-2.2-0.2-4.3-0.7-6.4l17.8-6.9c2.5,2.8,5.6,5,9.1,6.5c6.3,2.6,13.4,2.6,19.7-0.1l19.5-8.3
				c3.2-1.4,6.1-3.4,8.5-5.9C394.9,156.8,397,145.6,393,135.9z M60.5,156.9c-2.2,6.2-9.3,9.6-15.4,7.4l-19.6-7
				c-3-1.1-5.5-3.3-6.9-6.2c-1.3-2.9-1.5-6.2-0.5-9.1L54.6,37.3c0.5-1.7,1.5-3.1,2.7-4.4c3.3-3.4,8.3-4.6,12.7-3l19.7,7
				c3,1.1,5.5,3.3,6.9,6.2c1.3,2.9,1.5,6.2,0.5,9.2L60.5,156.9z M118.1,183.4l-4.5,5.9c-3.4,4.5-9.5,5.2-13.8,1.8
				c-2.1-1.7-3.4-4-3.8-6.7c-0.3-2.6,0.3-5.3,2-7.4l4.5-5.9c0.2-0.3,0.5-0.6,0.8-0.9c3.4-3.6,9.1-4.1,13.1-1c2.1,1.7,3.4,4,3.8,6.7
				C120.4,178.6,119.7,181.2,118.1,183.4z M148.3,213.1c-0.1,0.2-0.2,0.2-0.2,0.4c-5.3,6-12.6,8.3-16.6,5.3
				c-4.3-3.3-4.8-13.1,1.2-21.8l6.1-9c0.8-1.1,1.7-2.2,2.6-3.2c5.2-5.5,12.1-7.4,16-4.4c4.8,3.7,4.3,13.9-1.2,21.8l-5.7,8.3
				L148.3,213.1z M177.4,233.9c-7.6,9.7-18.1,12.5-22.3,9.5c-1.3-1-2.2-2.5-2.5-4.6c-0.7-4.9,1.6-11.4,6-16.9l1.8-2.2
				c0.2-0.2,0.3-0.3,0.5-0.6l0.1-0.1l5.1-6.5c0.6-0.8,1.3-1.6,2-2.4c7.5-7.9,16.3-9.8,20.3-7c1.3,1,2.1,2.5,2.4,4.6
				c0.7,4.9-1.6,11.4-6,16.9L177.4,233.9z M173.9,190.3c0-0.2,0-0.3,0-0.5l0.3,0.3C174.2,190.2,174,190.2,173.9,190.3z M219.4,235.7
				c-0.2,4-2.1,8.5-5.1,12.2l-6.5,8.1c-5.7,7-14.2,9.8-18.4,6.2c-1.8-1.4-2.3-3.8-2.4-5.4c-0.4-4.5,1.5-9.8,5.1-14.2l6.5-8.1
				c0.5-0.6,0.9-1,1.4-1.5c5.6-5.8,13.2-7.9,17-4.7C219.4,230.3,219.5,233.9,219.4,235.7z M293.2,196c-0.2,0.2-0.5,0.4-0.8,0.6
				c-2-0.4-8-2.6-21-15l-47.6-42.4c-2.8-2.5-6.8-2.1-9.5,0.6c-2.4,2.9-2.1,7.2,0.7,9.7l47.5,42.2c5.6,5.3,10.6,9.4,15.1,12.5
				c-1.8,3.9-4.8,8.6-8.3,9.5c-4.1,1-9.2-3.8-12.4-7l-52.8-47c-2.8-2.5-7.1-2.3-9.5,0.7c-2.4,2.9-2.1,7.2,0.7,9.7l52.6,46.6
				c2.3,2.5,4.6,4.4,7,6.1c-1.7,4-4.5,8.6-7.7,9.5c-2.9,0.7-7-1.6-12.3-7.1L181,177.5c-2.7-2.3-6.6-2.2-9,0.3
				c-1.5-3.4-3.6-6.2-6.5-8.5c-8.8-6.9-22-5-32.1,4.2c-0.9-6.2-4-11.7-8.8-15.4c-9.7-7.7-23.6-6.3-31.7,3.4
				c-4.5-6.6-10.5-10.2-15.3-12.1l31.8-91.1l67.7-5.5l-17.5,12.6c-0.6,0.4-1.1,1-1.6,1.6c-0.5,0.6-10.9,15.7-8.5,35.4
				c-2,4.2-5.2,12.7-3,19.9c1.2,3.8,3.6,6.7,7.4,8.6c0.6,0.3,16.2,7,30.2-1.8c9.9-6.2,16-18.1,18.2-35.4l8.4-0.5l75.3,69.7
				c3.8,3,14.7,13.3,14.5,22.1C300.4,186.7,300.3,191,293.2,196z M307.5,166.6c-5.3-7.9-12.1-13.4-13.1-14.1l-76.9-71.2
				c-1.3-1.3-3.1-1.8-4.9-1.8l-16.9,1c-3.4,0.2-6.1,2.9-6.3,6.3c-1.1,15.7-5.4,26.3-12.4,30.6c-7.8,5-17.6,1-17.8,1
				c-0.7-1.3,0.5-7,3-11.4c0.7-1.4,1-3,0.8-4.6c-2.2-12.8,3.5-23.6,5.3-26.6l35.6-25.8c2-0.8,15.9-5.8,35,6
				c3.1,2.2,28.3,18.7,47.1,10.2l38.2,93.7L307.5,166.6z M374,157.6l-19.5,8.3c-3,1.3-6.3,1.3-9.4,0c-3-1.3-5.4-3.7-6.6-6.8
				L295.7,54.5c-1.9-4.6-0.9-10,2.5-13.6c1.2-1.2,2.5-2.2,4.1-2.8l19.5-8.3c3-1.3,6.3-1.3,9.4,0c3,1.3,5.4,3.7,6.6,6.8l42.8,104.6
				C383.1,147.4,380.1,154.9,374,157.6z M340.4,81c-1.4-3.5-5.3-5.2-8.8-3.8c-3.4,1.4-5.1,5.4-3.8,9l22.4,56.6
				c1.4,3.5,5.3,5.2,8.8,3.8c0.9-0.4,1.6-0.9,2.3-1.6c1.8-1.9,2.4-4.8,1.4-7.4L340.4,81z"/>
		</g>
	</g>
</g>
<g>
	<path fill="#0099FF" stroke="#0099FF" stroke-width="2" stroke-miterlimit="10" d="M31.2,326.4c0-6.2-0.2-11.2-0.4-15.8h7.9
		l0.4,8.3h0.2c3.6-5.9,9.3-9.4,17.2-9.4c11.7,0,20.5,9.9,20.5,24.6c0,17.4-10.6,26-22,26c-6.4,0-12-2.8-14.9-7.6h-0.2v26.3h-8.7
		V326.4z M39.9,339.3c0,1.3,0.2,2.5,0.4,3.6c1.6,6.1,6.9,10.3,13.2,10.3c9.3,0,14.7-7.6,14.7-18.7c0-9.7-5.1-18-14.4-18
		c-6,0-11.6,4.3-13.3,10.9c-0.3,1.1-0.6,2.4-0.6,3.6V339.3z"/>
	<path fill="#0099FF" stroke="#0099FF" stroke-width="2" stroke-miterlimit="10" d="M114.9,359l-0.7-6.1h-0.3
		c-2.7,3.8-7.9,7.2-14.8,7.2c-9.8,0-14.8-6.9-14.8-13.9c0-11.7,10.4-18.1,29.1-18v-1c0-4-1.1-11.2-11-11.2c-4.5,0-9.2,1.4-12.6,3.6
		l-2-5.8c4-2.6,9.8-4.3,15.9-4.3c14.8,0,18.4,10.1,18.4,19.8v18.1c0,4.2,0.2,8.3,0.8,11.6H114.9z M113.6,334.3
		c-9.6-0.2-20.5,1.5-20.5,10.9c0,5.7,3.8,8.4,8.3,8.4c6.3,0,10.3-4,11.7-8.1c0.3-0.9,0.5-1.9,0.5-2.8V334.3z"/>
	<path fill="#0099FF" stroke="#0099FF" stroke-width="2" stroke-miterlimit="10" d="M136.3,325.7c0-5.7-0.1-10.6-0.4-15.1h7.7
		l0.3,9.5h0.4c2.2-6.5,7.5-10.6,13.4-10.6c1,0,1.7,0.1,2.5,0.3v8.3c-0.9-0.2-1.8-0.3-3-0.3c-6.2,0-10.6,4.7-11.8,11.3
		c-0.2,1.2-0.4,2.6-0.4,4.1V359h-8.7V325.7z"/>
	<path fill="#0099FF" stroke="#0099FF" stroke-width="2" stroke-miterlimit="10" d="M182,296.7v13.9h12.6v6.7H182v26.1
		c0,6,1.7,9.4,6.6,9.4c2.3,0,4-0.3,5.1-0.6l0.4,6.6c-1.7,0.7-4.4,1.2-7.8,1.2c-4.1,0-7.4-1.3-9.5-3.7c-2.5-2.6-3.4-6.9-3.4-12.6
		v-26.4h-7.5v-6.7h7.5V299L182,296.7z"/>
	<path fill="#0099FF" stroke="#0099FF" stroke-width="2" stroke-miterlimit="10" d="M204.5,323.7c0-5-0.1-9.1-0.4-13.1h7.8l0.5,8
		h0.2c2.4-4.6,8-9.1,16-9.1c6.7,0,17.1,4,17.1,20.6V359h-8.8v-27.9c0-7.8-2.9-14.3-11.2-14.3c-5.8,0-10.3,4.1-11.8,9
		c-0.4,1.1-0.6,2.6-0.6,4.1V359h-8.8V323.7z"/>
	<path fill="#0099FF" stroke="#0099FF" stroke-width="2" stroke-miterlimit="10" d="M264.9,336.4c0.2,11.9,7.8,16.8,16.6,16.8
		c6.3,0,10.1-1.1,13.4-2.5l1.5,6.3c-3.1,1.4-8.4,3-16.1,3c-14.9,0-23.8-9.8-23.8-24.4s8.6-26.1,22.7-26.1c15.8,0,20,13.9,20,22.8
		c0,1.8-0.2,3.2-0.3,4.1H264.9z M290.7,330.1c0.1-5.6-2.3-14.3-12.2-14.3c-8.9,0-12.8,8.2-13.5,14.3H290.7z"/>
	<path fill="#0099FF" stroke="#0099FF" stroke-width="2" stroke-miterlimit="10" d="M310.1,325.7c0-5.7-0.1-10.6-0.4-15.1h7.7
		l0.3,9.5h0.4c2.2-6.5,7.5-10.6,13.4-10.6c1,0,1.7,0.1,2.5,0.3v8.3c-0.9-0.2-1.8-0.3-3-0.3c-6.2,0-10.6,4.7-11.8,11.3
		c-0.2,1.2-0.4,2.6-0.4,4.1V359h-8.7V325.7z"/>
	<path fill="#0099FF" stroke="#0099FF" stroke-width="2" stroke-miterlimit="10" d="M341.6,350c2.6,1.7,7.2,3.5,11.6,3.5
		c6.4,0,9.4-3.2,9.4-7.2c0-4.2-2.5-6.5-9-8.9c-8.7-3.1-12.8-7.9-12.8-13.7c0-7.8,6.3-14.2,16.7-14.2c4.9,0,9.2,1.4,11.9,3l-2.2,6.4
		c-1.9-1.2-5.4-2.8-9.9-2.8c-5.2,0-8.1,3-8.1,6.6c0,4,2.9,5.8,9.2,8.2c8.4,3.2,12.7,7.4,12.7,14.6c0,8.5-6.6,14.5-18.1,14.5
		c-5.3,0-10.2-1.3-13.6-3.3L341.6,350z"/>
</g>
</svg>
