<?xml version="1.0" encoding="utf-8"?>
<!-- Generator: Adobe Illustrator 18.1.1, SVG Export Plug-In . SVG Version: 6.00 Build 0)  -->
<svg version="1.1" xmlns="http://www.w3.org/2000/svg" xmlns:xlink="http://www.w3.org/1999/xlink" x="0px" y="0px"
	 viewBox="0 0 400 400" enable-background="new 0 0 400 400" xml:space="preserve">
<g id="Layer_3" display="none">
	<rect display="inline" fill="#808080" width="400" height="400"/>
</g>
<g id="Layer_2">
	<path id="path2411" fill="#FFFFFF" d="M161.1,292.6l-2.5-2.2l7.5-7.5c7.6-7.6,17.1-15,25.4-19.8c5.6-3.2,5.4-3,4.2-3.7
		c-1.7-1-11.2-3.9-15.2-4.5l-3.7-0.6l-3.4,2.9c-7.1,6.1-13.6,7.8-28.8,7.9c-14.2,0-25-1.9-39.7-7c-6.2-2.2-6.3-2.2-4.2-3
		c2.8-1.1,16.7-4.1,25.2-5.4c9.3-1.4,34.2-2,43.5-1c10.1,1.1,19.1,3,27.6,5.7l7.3,2.3l6.8-2.3c7.9-2.6,17.7-4.7,27.9-5.8
		c9.3-1,34.1-0.4,43.6,1c8.6,1.3,22.3,4.2,25.1,5.3c2.1,0.8,2.1,0.8-4.2,3c-14.6,5.1-25.4,7-39.7,7c-15.2,0-21-1.6-28.9-7.8l-3.8-3
		l-3.5,0.7c-4.3,0.8-13.6,3.7-15,4.6c-0.7,0.5-0.8,0.8-0.3,1c1.9,0.8,15,9.5,19.2,12.8c5.9,4.6,17.3,16,17.3,17.3
		c0,1.3-4.5,4.5-6.1,4.2c-0.7-0.1-3.7-2.9-6.7-6.1c-8-8.6-20.1-18.6-29.2-23.8l-2.6-1.5l-3.7,2.2c-9.4,5.5-23.1,17-30.1,25.3
		C166.2,295.5,164.8,295.8,161.1,292.6z M100.2,246.6c-6.5-0.7-10.1-1.8-16.1-4.7c-9.6-4.8-15.9-10.7-24.5-23
		c-4.5-6.4-4.6-6.7-3-6.9c2.7-0.3,13.5,3.5,23.5,8.3c16.8,8.1,29.7,16.1,35.5,22.2l3,3.2l-2.4,0.4
		C111.8,246.9,104.8,247.1,100.2,246.6z M299.2,246.9c-1.2-0.1-3.7-0.4-5.8-0.6l-3.7-0.4l1.2-2c1.6-2.6,8.2-7.7,17-13
		c8.3-5.1,29.8-15.5,35.4-17.2c5-1.5,9.1-2.1,9.1-1.3c0,1.1-8.1,12.4-12,16.7c-7.5,8.4-18.8,15.2-27.8,16.8
		C308,246.7,302,247.2,299.2,246.9z M135.4,243.2c-10.3-1.4-19.3-8.2-24.4-18.3c-4-8-8.1-23.7-6.1-23.7c0.4,0,2.8,1.6,5.5,3.5
		c15.4,11.1,34.3,28.6,37.5,34.7l1.9,3.7l-1.6,0.4C146,244,140.4,243.9,135.4,243.2z M260,243.5c-1.9-0.3-1.6-1.6,1.1-5.9
		c4.9-7.6,40.5-38.1,42.4-36.3c0.7,0.7-1.2,9.8-3.3,16.2c-3.7,11.1-9.8,18.7-18.4,22.8C275.6,243.3,266.2,244.6,260,243.5z
		 M185.2,231.6c-48.7-7.6-87.2-42.1-98.2-88c-2.4-9.8-3.1-18.1-2.6-30c0.7-18.1,3.9-30.3,12.3-46.6c2.7-5.1,7-12.2,9.6-15.7
		c5.8-7.8,18.1-19.8,26-25.4c28.5-20.1,63.6-27.1,98.3-19.7c10.5,2.3,15.9,4.1,26.9,9.3c32.9,15.7,55.9,44.3,63.9,79.9
		c1.4,6.2,1.6,8.9,1.6,22.7c0,17.3-0.8,22.9-5.2,35.8c-2.9,8.4-10.9,23.6-16.5,31.1c-6.1,8.2-18.9,20.5-27.4,26.2
		c-13.3,9-29.7,16-45.7,19.3C219.1,232.5,194.6,233.1,185.2,231.6z M161.2,207c2.7-0.9,8.2-2.9,12.2-4.4c10-3.7,18.4-6,25.1-6.8
		c6.8-0.8,8.8-1.7,10.9-4.6c1.9-2.7,2-5.5,0.5-9.8c-0.6-1.7-1.5-6.6-2-10.9c-0.5-4.3-1.4-8.9-2.1-10.2c-1.3-2.6-5.3-6.4-12.1-11.4
		c-5.9-4.3-7.3-6.5-6.9-11c0.2-2.8,0.7-4,2.3-5.5c1.5-1.5,2.1-2.9,2.4-5.5c0.3-3.1,0.6-3.5,2.1-3.7c2.8-0.4,3.5-1.4,3.5-5.2
		c0-3.3,0.1-3.6,1.7-3.6c2.7,0,3.7-1.7,2.6-4.2c-2.5-5.8-1.6-7.8,3.3-7.8c4.4,0,11.9-1.6,15.2-3.2c1.5-0.7,6-4.4,10-8.2
		c10.6-10.1,17.9-13.2,30.3-13.3c7.3,0,12.5,1.1,18.6,4.1c16.1,7.8,27.3,20.4,31.2,35.2c1.9,7,1.8,18.8,0,26
		c-2.5,9.3-5.6,14.5-13.2,21.7c-10.6,10.1-19.2,14.1-31,14.4c-7.8,0.2-8.3,0.7-7.9,7c0.5,6.8,4.8,13.3,12.2,18.2
		c3.7,2.4,3.5,2.5,12.6-5.8c25.7-23.4,38.9-56.3,35.8-89c-1.5-15.7-6.6-31.7-14.6-45.2c-1.7-2.9-3.3-5.3-3.6-5.5
		c-0.3-0.2-2.1,0.6-4,1.7c-1.9,1.1-6.2,3.6-9.7,5.4c-3.5,1.8-6.4,3.4-6.5,3.5c-0.1,0.1,0.6,1.8,1.5,3.9l1.7,3.7l-2.9-1.2
		c-1.6-0.7-3.4-2-4-2.9c-0.8-1.3-1.3-1.5-2.2-1c-0.8,0.4-2.8,0.3-5.9-0.3c-3.9-0.8-4.4-1-2.9-1.4c1-0.2,3.3-1,5.1-1.8l3.3-1.3
		l-2.3-3.8c-2.9-4.9-10.2-15.2-11.5-16.3c-0.8-0.7-2.2-0.3-7.1,1.9c-3.3,1.5-8,3.4-10.3,4.2c-2.3,0.8-4.3,1.5-4.4,1.7
		c-0.1,0.1,1.2,4.5,3,9.6s3.1,9.6,3,9.7c-0.2,0.2-1.2,0.5-2.3,0.7l-2,0.4l-3.2-9.2c-3.7-10.7-2.2-9.9-14.2-8
		c-3.8,0.6-9.1,1.3-11.7,1.5l-4.7,0.4v11v11l5.4-0.4c3-0.2,8.3-0.7,11.8-1c3.5-0.3,7.1-0.6,8-0.6h1.5l-1.7,1.7
		c-2.8,2.8-4,3.2-14.6,3.9l-10.1,0.7l-0.2,3.8l-0.2,3.8h-2.4h-2.4v-17v-17l-3.7-0.4c-2-0.2-4.6-0.4-5.9-0.4c-1.8,0-2.5-0.5-3.6-2.3
		l-1.4-2.3l7.3,0.4l7.3,0.4v-9.5c0-7-0.2-9.5-0.9-9.7c-0.5-0.1-3.1-0.6-5.8-1c-2.7-0.4-5.7-0.9-6.7-1.2c-1.7-0.4-2.1,0-5.4,5.9
		c-1.9,3.4-3.6,6.5-3.8,6.9c-0.2,0.6-3.9-1.6-4-2.4c0-0.2,1.5-3.1,3.4-6.4c2.5-4.3,3.2-6.1,2.6-6.5c-0.5-0.3-3-1.7-5.6-3.2l-4.7-2.7
		l-6.6,5.1c-6.5,5.1-6.6,5.1-9.5,4.5l-2.9-0.6l7.4-6c4.1-3.3,7.4-6.2,7.3-6.4c-0.1-0.2-1.4-1.7-2.8-3.2l-2.7-2.8l-3.6,1.5
		c-13.5,5.5-29.6,16.8-39.7,27.9c-15.5,17-26,39.8-28,60.4c-0.2,2.4-0.6,5.5-0.8,6.9c-0.2,1.4,0,2.5,0.4,2.5c0.4,0,3-1.7,5.7-3.7
		c2.8-2,7.2-4.9,9.9-6.4c10.5-5.8,11.4-7.8,8.8-19.9c-1.5-7.1-1.8-14.9-0.6-20.2c2.4-10.8,10.8-19.6,22.3-23.3
		c3.7-1.2,5.6-1.4,11.8-1.2c6.1,0.2,8.2,0.6,12.6,2.3c10.8,4.1,21.2,12.3,25.7,20.3c2.3,4,2.4,4.8,2.4,10.4c0,6.7-1.3,10.2-6.3,17.1
		c-2.6,3.6-2.6,3.7-2.2,8.4l0.4,4.8l-2.1,1.1c-1.6,0.8-2.1,1.5-2.1,3c0,1.1-0.4,2.2-1,2.5c-0.5,0.3-1.1,1.3-1.2,2.2
		c-0.2,1.1-0.7,1.7-1.8,1.9c-0.9,0.1-2.4,1.2-3.4,2.5c-3.2,4-6.9,4.5-16.8,2.2c-6.1-1.4-6.6-1.4-8.9-0.4c-3.3,1.5-3.6,3.2-1.9,11.3
		c1.8,8.5,4.3,25.7,4.3,29.2c0,6.6,3.2,8.5,16.7,9.8l9.8,0.9l4-2.7c3.5-2.3,4.4-2.7,7.1-2.5c2.8,0.2,3.1,0.4,2.9,1.7
		c-0.2,1.5-0.1,1.5,3.5,1.1c3-0.3,3.9-0.2,4.7,0.7c1.4,1.6,0.6,7.7-1.6,12c-3.2,6.2-8,8.1-16,6.1c-4.2-1-5.1-1-10-0.1
		c-11.4,2.1-16.1,2.7-22.6,2.7c-5.8,0-7.2-0.2-10.3-1.7l-3.6-1.7l-1.1,1.6c-1.7,2.5-2.9,6.4-3,9.4c0,2.7,0.1,2.9,5.9,7.4
		c3.3,2.5,6.6,4.8,7.5,5c0.8,0.3,5.1,0.4,9.6,0.3C154.8,208.8,157.2,208.4,161.2,207z M293.5,56.5l4-2.5l-3.1-3.8
		c-1.7-2.1-6.1-6.7-9.8-10.2c-5-4.8-6.9-6.2-7.6-5.7c-5.5,3.9-11.4,7.9-12.2,8.3c-0.7,0.4,0.1,2,3.6,6.8c2.5,3.5,5.7,8.3,7.1,10.8
		l2.6,4.5l5.7-2.9C286.9,60.3,291.3,57.8,293.5,56.5z M223.7,53c3.2-0.6,6.2-1.3,6.7-1.5c0.7-0.4-0.2-2.5-3.3-8.4
		c-5.2-9.7-5.3-9.9-7.6-9.3c-1,0.3-4.3,0.8-7.4,1.2l-5.6,0.8l-0.2,9.6l-0.2,9.6l5.9-0.4C215.2,54.2,220.5,53.6,223.7,53z
		 M241.5,48.3c7.5-2.7,14.1-5.8,14.1-6.6c0-0.9-9.7-9.8-14.8-13.7l-3.9-2.9l-1.9,1.3c-1.1,0.7-3.4,2-5.1,2.8
		c-1.7,0.8-3.3,1.6-3.4,1.7c-0.4,0.3,9.2,18.9,9.8,18.9C236.6,50,238.9,49.2,241.5,48.3z M267.1,35.5c3-2.1,5.7-4.2,5.8-4.7
		c0.4-1.1-12.2-8.9-19.8-12.3l-6.1-2.7L244,19l-3.1,3.2l2.3,1.7c5,3.7,13,10.8,14.8,13.1c1,1.3,2.3,2.4,2.7,2.4
		C261.2,39.3,264.1,37.6,267.1,35.5z M201.3,22.6c0-4.8-0.3-8.7-0.6-8.7c-0.3,0-1.3,1-2.2,2.2c-5.1,6.7-9,12.1-9,12.6
		c0,0.5,1.7,0.9,8.7,2.2C201.4,31.5,201.3,31.7,201.3,22.6z M214.7,29.8c1.8-0.4,3.3-1,3.3-1.4c0-0.9-6.4-9.8-9.4-13l-2.4-2.6l0,9.2
		l0,9.2l2.6-0.4C210.2,30.7,212.9,30.2,214.7,29.8z M187.5,22.8c1.7-2.5,4.2-5.8,5.4-7.4c1.2-1.6,1.9-2.8,1.4-2.8
		c-2.4,0-19.1,9.1-18.5,10.1c0.4,0.7,7.3,4.6,8,4.6C184.2,27.3,185.8,25.2,187.5,22.8z M227.9,25.2c2.3-1.2,4.1-2.4,4.1-2.7
		c0-1.3-17.7-10.6-18.6-9.7c-0.2,0.2,1.7,3.2,4.3,6.6c2.6,3.4,4.8,6.6,5,7.1C223.2,27.6,223.2,27.6,227.9,25.2z M174.3,17.3
		c1.6-1.1,5.4-3.2,8.5-4.7c6.8-3.4,7.8-4.2,4.5-3.7c-5.6,0.9-13.2,2.6-17.3,3.8l-4.4,1.3l2.7,2.6c1.5,1.4,2.8,2.6,2.9,2.6
		C171.3,19.2,172.7,18.4,174.3,17.3z M240.3,16.1c1.2-1.5,1.3-1.9,0.5-2.3c-2.6-1.4-22.7-5.7-22.7-4.8c0,0.1,3,1.7,6.7,3.6
		c3.7,1.9,7.8,4.2,9.2,5C236.7,19.4,237.8,19.1,240.3,16.1z M97.6,221.5c-5.7-3.7-11-9.4-14-15c-4-7.5-4.7-10.5-4.7-21.1
		c0-7.6,0.3-10.5,1.6-15.6c0.9-3.4,1.9-6.2,2.1-6.2c0.3,0,1.5,1.5,2.7,3.3c6.9,10.1,16.2,39.6,16.3,51.3c0,2.7-0.1,5.1-0.3,5.2
		C101.3,223.7,99.6,222.8,97.6,221.5z M306.3,221.3c-1.6-9.7,9.6-45.9,17.2-55.5l1.8-2.3l0.8,1.9c3.1,7.8,4.3,22.3,2.5,30.4
		c-1.8,8.2-5.3,14.2-11.9,20.4c-3.1,2.9-6.6,5.9-7.8,6.5l-2.2,1.2L306.3,221.3z M74.1,212.9c-7.3-3.1-12.2-6.3-18.4-12
		c-8.3-7.7-14.2-15.9-18.7-26.1c-2.4-5.3-4.8-13.6-4.1-14.3c0.7-0.7,9.4,5.7,15.3,11.1c13.9,12.8,27.9,30.6,32,40.7
		C81.7,215.9,81.4,215.9,74.1,212.9z M328.1,211.8c3.5-8.9,16-24.8,29.6-37.8c8.4-8,16.7-14.3,17.6-13.5c0.7,0.7-3.3,12.6-6.1,18
		c-6,11.6-15,22.1-24.1,28.4c-4.3,3-12.9,7-16.4,7.9l-1.9,0.4L328.1,211.8z M67.1,183.4c-1.5-2.2-3.4-6.1-4.4-8.7
		c-1.5-4.1-1.8-5.8-1.7-13.1c0-7.6,0.2-8.9,2.3-14.7c2.1-5.9,7.2-15.5,9.8-18.3c1.1-1.2,1.2-1.1,2.1,1.7c3.2,10.1,0.7,45.9-3.9,54.4
		l-1.4,2.6L67.1,183.4z M336.7,184c-3.4-7.6-5.4-24-4.9-39.9c0.2-6.1,0.7-12.3,1.3-14l0.9-3.2l2,2.8c9.2,13,13.3,28.3,10.7,39.9
		c-1.1,5.1-4.7,13.2-7.2,16l-1.4,1.6L336.7,184z M49.7,166.1c-5.9-4.2-11.1-10.4-14.7-17.4c-4.5-8.9-6-15.2-6.4-28.6
		c-0.2-6.3-0.1-11.2,0.2-11.2c2.4,0,15,22.3,20.1,35.7c4.5,11.7,7.3,24.5,5.4,24.5C54.1,169.1,52,167.7,49.7,166.1z M353.2,166.5
		c0-3.5,2.7-13.6,5.9-21.8c5.4-14.2,18.2-36.5,20.2-35.3c1,0.6,0,20-1.2,25.4c-2.2,9.8-6.8,18.7-12.7,25.1
		c-2.4,2.6-10.7,9.1-11.5,9.1C353.5,169.1,353.2,167.9,353.2,166.5z M54.7,147.3c-0.2-0.3-0.9-2.5-1.5-4.7c-1.4-5.2-1.4-14.2,0-19.3
		c2.3-8.7,8.8-18.9,16.4-26.1l4.3-4l-0.4,6c-0.8,11.1-5.5,26.1-12.3,39.1C57.6,145.1,55.4,148.2,54.7,147.3z M350.1,144.1
		c-7.8-11.6-15.8-35.4-15.7-46.7l0-4.2l5.4,5.4c6.2,6.3,11.3,14,13.9,21c3,8.2,3,19.5-0.1,26.3l-0.9,2L350.1,144.1z M360.2,120
		c-0.6-3.6-0.8-8.9-0.5-18.3c0.5-16.9,2.5-29.3,6-37.1l1.3-2.9l2.1,6.4c4.7,14.1,5.4,29.7,1.8,40.5c-1.4,4.3-5.3,11.4-7.8,14.3
		l-2,2.3L360.2,120z M43.8,121.4c-7.1-9.2-10.1-22.1-8.5-36.7c0.8-7.2,3.5-18,5.2-21.2c1-1.8,1-1.7,2.8,3.6
		c3.5,10.5,5.3,24.4,5.3,39.5c0,8.7-1.1,17.6-2.2,17.6C46.2,124.3,45,123,43.8,121.4z M54.6,101.1c-1-5,1-13.7,4.7-20.6
		c3.5-6.6,10.3-13.3,18.8-18.7c3.4-2.1,6.3-3.8,6.5-3.6c0.7,0.7-4.2,12-8.2,19c-6.5,11.1-14,21-19,24.6l-2.3,1.7L54.6,101.1z
		 M348.5,99.6c-8-7.8-19.1-25.7-22.7-36.8c-0.9-2.8-1.6-5.2-1.4-5.3c0.4-0.4,10.6,6.5,14.5,10c5,4.4,9.7,10.7,11.9,15.9
		c2.1,4.9,3.5,14.9,2.7,18.1l-0.6,2.3L348.5,99.6z M51.1,75.9c-0.8-5.3,0-12.4,1.9-17c3-7.1,6.2-11.4,14-19.1l7.5-7.4l-0.4,3.3
		c-0.7,5.4-3.7,15.6-6.2,21.3c-3.4,7.6-6.4,12.1-11.6,17.4l-4.6,4.8L51.1,75.9z M354.2,76.9c-8.1-6.6-15.7-20.9-19.1-35.6
		c-2.3-9.8-2.2-9.8,4.6-3.3c6.7,6.4,13.3,15.3,15.7,21.2c1.7,4.3,2.6,13.8,1.6,17.4l-0.6,2.1L354.2,76.9z"/>
	<g>
		<path fill="#FFFFFF" stroke="#FFFFFF" stroke-width="3" stroke-miterlimit="10" d="M121.2,364.8c2.6,1.7,7.2,3.5,11.6,3.5
			c6.4,0,9.4-3.2,9.4-7.2c0-4.2-2.5-6.5-9-8.9c-8.7-3.1-12.8-7.9-12.8-13.7c0-7.8,6.3-14.2,16.7-14.2c4.9,0,9.2,1.4,11.9,3l-2.2,6.4
			c-1.9-1.2-5.4-2.8-9.9-2.8c-5.2,0-8.1,3-8.1,6.6c0,4,2.9,5.8,9.2,8.2c8.4,3.2,12.7,7.4,12.7,14.6c0,8.5-6.6,14.5-18.1,14.5
			c-5.3,0-10.2-1.3-13.6-3.3L121.2,364.8z"/>
		<path fill="#FFFFFF" stroke="#FFFFFF" stroke-width="3" stroke-miterlimit="10" d="M172.6,311.5v13.9h12.6v6.7h-12.6v26.1
			c0,6,1.7,9.4,6.6,9.4c2.3,0,4-0.3,5.1-0.6l0.4,6.6c-1.7,0.7-4.4,1.2-7.8,1.2c-4.1,0-7.4-1.3-9.5-3.7c-2.5-2.6-3.4-6.9-3.4-12.6
			v-26.4h-7.5v-6.7h7.5v-11.6L172.6,311.5z"/>
		<path fill="#FFFFFF" stroke="#FFFFFF" stroke-width="3" stroke-miterlimit="10" d="M221.9,373.8l-0.7-6.1h-0.3
			c-2.7,3.8-7.9,7.2-14.8,7.2c-9.8,0-14.8-6.9-14.8-13.9c0-11.7,10.4-18.1,29.1-18v-1c0-4-1.1-11.2-11-11.2c-4.5,0-9.2,1.4-12.6,3.6
			l-2-5.8c4-2.6,9.8-4.3,15.9-4.3c14.8,0,18.4,10.1,18.4,19.8v18.1c0,4.2,0.2,8.3,0.8,11.6H221.9z M220.6,349.1
			c-9.6-0.2-20.5,1.5-20.5,10.9c0,5.7,3.8,8.4,8.3,8.4c6.3,0,10.3-4,11.7-8.1c0.3-0.9,0.5-1.9,0.5-2.8V349.1z"/>
		<path fill="#FFFFFF" stroke="#FFFFFF" stroke-width="3" stroke-miterlimit="10" d="M244.2,373.8v-41.7h-6.8v-6.7h6.8v-2.3
			c0-6.8,1.5-13,5.6-16.9c3.3-3.2,7.7-4.5,11.8-4.5c3.1,0,5.8,0.7,7.5,1.4l-1.2,6.8c-1.3-0.6-3.1-1.1-5.6-1.1c-7.5,0-9.4,6.6-9.4,14
			v2.6h11.7v6.7h-11.7v41.7H244.2z"/>
		<path fill="#FFFFFF" stroke="#FFFFFF" stroke-width="3" stroke-miterlimit="10" d="M273.3,373.8v-41.7h-6.8v-6.7h6.8v-2.3
			c0-6.8,1.5-13,5.6-16.9c3.3-3.2,7.7-4.5,11.8-4.5c3.1,0,5.8,0.7,7.5,1.4l-1.2,6.8c-1.3-0.6-3.1-1.1-5.6-1.1c-7.5,0-9.4,6.6-9.4,14
			v2.6h11.7v6.7h-11.7v41.7H273.3z"/>
	</g>
</g>
</svg>
